<svg width="48" height="49" viewBox="0 0 48 49" fill="none" xmlns="http://www.w3.org/2000/svg">
<path d="M31.7366 4.04688H6.58563C5.6716 4.04688 5.23663 5.17197 5.91296 5.78682L14.9949 14.0432C15.179 14.2105 15.4189 14.3032 15.6676 14.3032H40.8853C41.8011 14.3032 42.2352 13.1744 41.5553 12.5608L32.4066 4.30449C32.2228 4.13866 31.9841 4.04688 31.7366 4.04688Z" fill="#FFCE70" stroke="white" stroke-linejoin="round"/>
<path fill-rule="evenodd" clip-rule="evenodd" d="M44 15.3037C44 14.7514 43.5523 14.3037 43 14.3037H16.2822C15.7299 14.3037 15.2822 14.7514 15.2822 15.3037V43.0471C15.2822 43.5994 15.7299 44.0471 16.2822 44.0471H21.4611C22.0134 44.0471 22.4611 43.5994 22.4611 43.0471V23.5088C22.4611 22.9565 22.9088 22.5088 23.4611 22.5088H35.82C36.3723 22.5088 36.82 22.9565 36.82 23.5088V43.0471C36.82 43.5994 37.2677 44.0471 37.82 44.0471H43C43.5523 44.0471 44 43.5994 44 43.0471V15.3037Z" fill="#1CC8EE"/>
<path d="M13.6114 42.0219L4.84227 34.0879C4.63273 33.8983 4.51318 33.629 4.51318 33.3464V6.81288C4.51318 5.94587 5.54117 5.48966 6.1841 6.07135L14.9533 14.0054C15.1628 14.1949 15.2824 14.4643 15.2824 14.7469V41.2804C15.2824 42.1474 14.2544 42.6036 13.6114 42.0219Z" fill="#80F1D3" stroke="white" stroke-linejoin="round"/>
<path d="M35.8193 22.5078H23.4604C22.9082 22.5078 22.4604 22.9555 22.4604 23.5078V43.0462C22.4604 43.5984 22.9082 44.0462 23.4604 44.0462H35.8193C36.3716 44.0462 36.8193 43.5984 36.8193 43.0462V23.5078C36.8193 22.9555 36.3716 22.5078 35.8193 22.5078Z" fill="#FFCE70" stroke="white" stroke-linejoin="round"/>
<path d="M42.3281 42.5259L33.0461 34.0878C32.8376 33.8982 32.7188 33.6296 32.7188 33.3478V6.82012C32.7188 5.95198 33.7491 5.49621 34.3914 6.08018L43.6734 14.5184C43.8819 14.7079 44.0007 14.9766 44.0007 15.2583V41.786C44.0007 42.6541 42.9704 43.1099 42.3281 42.5259Z" stroke="white" stroke-linejoin="round"/>
<rect x="15.2793" y="14.3027" width="28.7178" height="29.7434" rx="1" stroke="white" stroke-linejoin="round"/>
<path d="M15.2793 14.3027H43.4843" stroke="white" stroke-linejoin="round"/>
<path fill-rule="evenodd" clip-rule="evenodd" d="M32.7168 5.04688C32.7168 4.49459 32.2691 4.04688 31.7168 4.04688H4.99902C4.44674 4.04688 3.99902 4.49459 3.99902 5.04688V32.7903C3.99902 33.3426 4.44674 33.7903 4.99902 33.7903H31.7168C32.2691 33.7903 32.7168 33.3426 32.7168 32.7903V5.04688ZM25.5368 13.2518C25.5368 12.6995 25.0891 12.2518 24.5368 12.2518H12.1779C11.6256 12.2518 11.1779 12.6995 11.1779 13.2518V32.7902C11.1779 33.3424 11.6256 33.7902 12.1779 33.7902H24.5368C25.0891 33.7902 25.5368 33.3424 25.5368 32.7902V13.2518Z" fill="#D01865"/>
<rect x="3.99902" y="4.04688" width="28.7178" height="29.7434" rx="1" stroke="white" stroke-linejoin="round"/>
</svg>
