<svg width="81" height="96" viewBox="0 0 81 96" fill="none" xmlns="http://www.w3.org/2000/svg">
<path d="M68.2223 63.0404C68.2223 63.0404 65.5867 63.144 62.6337 58.439C62.0575 57.5228 61.4638 56.6201 60.8229 55.7504C59.5579 54.0445 57.345 50.5331 56.307 45.7291C55.7959 43.3659 53.3568 41.9225 51.038 42.6097C47.4954 43.6634 44.2758 47.885 50.5829 62.4839C50.5829 62.4839 45.9151 63.5749 41.0511 63.6947C41.0511 63.6947 35.2131 63.1654 35.5457 68.1493C35.5457 68.1493 35.486 71.1908 37.2376 71.5179C37.2376 71.5179 34.1594 72.9679 35.0409 76.4967C35.0409 76.4967 35.274 80.1537 37.6413 80.1907C37.6413 80.1907 35.5683 81.6104 37.0981 85.011C37.0981 85.011 38.0632 87.3518 39.5547 87.2253C39.5547 87.2253 38.7957 91.7449 43.2715 92.2068C43.2715 92.2068 45.9659 93.8624 57.0532 92.0075C57.0532 92.0075 66.6505 91.1205 70.4682 85.8213L74.1962 85.0844L69.7818 63.2338L68.2249 63.0366L68.2223 63.0404Z" fill="#FCD5BC"/>
<g opacity="0.2">
<path d="M54.6093 66.5714C54.6093 66.5714 53.7674 69.1011 48.1125 69.5407L36.4287 71.2804L51.1694 70.8796C51.1694 70.8796 56.0763 70.0809 54.6093 66.5714Z" fill="#4F5D90"/>
</g>
<g opacity="0.2">
<path d="M55.8051 74.2393C55.8051 74.2393 55.3861 77.1925 49.3734 77.5338L36.6348 79.7079L37.9029 80.1332L52.3649 78.548C52.3649 78.548 57.272 77.7493 55.8051 74.2393Z" fill="#4F5D90"/>
</g>
<g opacity="0.6">
<path d="M50.9277 86.9729L51.7106 87.397C51.9908 87.5502 52.2277 87.7727 52.3999 88.0415C52.8242 88.7082 53.3954 90.019 52.4904 91.3761C52.4904 91.3761 55.09 89.97 53.5077 87.4051C53.5077 87.4051 52.6119 86.5556 52.45 86.5877C52.288 86.6197 50.8532 86.6039 50.8532 86.6039L50.9277 86.9729Z" fill="#72CBD9"/>
</g>
<g opacity="0.2">
<path d="M55.4395 81.3779C55.4395 81.3779 54.3655 83.9422 49.6872 85.0332L38.37 86.9907L40.289 87.2098C40.289 87.2098 55.1524 88.2627 55.4699 83.1372L55.4401 81.3812L55.4395 81.3779Z" fill="#4F5D90"/>
</g>
<g opacity="0.6">
<path d="M51.126 79.5336L53.2341 79.9585C53.2341 79.9585 55.4403 80.869 54.7657 84.2006C54.7657 84.2006 56.2544 82.8122 55.3756 80.9659L54.0435 79.3777C54.0435 79.3777 52.6037 78.8745 52.5274 78.9468C52.4542 79.0185 51.126 79.5336 51.126 79.5336Z" fill="#72CBD9"/>
</g>
<g opacity="0.6">
<path d="M50.197 71.4781L52.6418 71.9815C53.4366 72.1443 54.1438 72.6072 54.6004 73.2813C55.1324 74.0616 55.6102 75.2568 55.3318 76.8639C55.3318 76.8639 56.5932 75.1837 55.7468 73.4991C55.7468 73.4991 54.4125 71.0693 52.4021 71.1299L50.1977 71.4813L50.197 71.4781Z" fill="#72CBD9"/>
</g>
<g opacity="0.6">
<path d="M40.0206 64.5686L49.3695 63.9646C49.9695 63.9271 50.5743 64.0302 51.119 64.2867C54.6661 65.218 55.65 70.0786 52.0469 70.6209C52.0469 70.6209 54.5805 71.0478 55.0622 68.4254L54.9259 65.251C54.9259 65.251 52.4365 62.6081 49.3132 62.7693L40.0206 64.5686Z" fill="#72CBD9"/>
</g>
<path d="M55.3047 43.941L56.3003 46.1678L57.0006 49.3686L58.0736 51.3444C58.0736 51.3444 54.7111 53.2176 52.9552 51.949L51.995 48.4125C51.995 48.4125 51.2171 43.3589 55.304 43.9378L55.3047 43.941Z" fill="#FDE6D7"/>
<path d="M59.3754 92.4012C62.507 91.7822 67.9019 90.2177 70.7449 86.5183L74.1909 85.8371C74.5929 85.7577 74.8543 85.366 74.7732 84.9646L70.3586 63.1139C70.2952 62.7999 70.0379 62.5612 69.7201 62.5231L68.1631 62.3258C68.1288 62.3225 68.0911 62.3199 68.0542 62.3204C67.9828 62.3177 65.7178 62.22 63.1126 58.0691C62.4259 56.9727 61.8388 56.1024 61.2687 55.3331C60.0641 53.7096 57.8954 50.2837 56.8815 45.5994C56.5965 44.2721 55.7547 43.1088 54.5757 42.4127C53.396 41.7134 51.9715 41.5371 50.6672 41.9228C48.9052 42.4461 47.6313 43.5328 46.8758 45.1499C45.2918 48.5399 46.138 54.1965 49.3907 61.9696C47.8346 62.2772 44.4111 62.8865 40.9128 62.9754C40.4951 62.9435 37.632 62.8058 35.9051 64.487C34.9727 65.3951 34.5467 66.6407 34.644 68.1902C34.6314 69.1791 34.8694 70.6907 35.7004 71.5835C34.615 72.5352 33.5723 74.2326 34.1451 76.6341C34.242 77.9144 34.7771 79.8454 36.1676 80.6208C35.636 81.5271 35.2384 83.0633 36.2559 85.3298C36.3745 85.6161 37.1824 87.4291 38.6042 87.8921C38.5946 88.7288 38.7318 90.0921 39.5924 91.2147C40.3392 92.1914 41.4487 92.7767 42.8972 92.955C43.6865 93.3241 47.0649 94.4271 56.9958 92.7706C57.1942 92.7516 58.0949 92.6543 59.3689 92.4025L59.3754 92.4012ZM73.1672 84.5246L70.1685 85.1173C69.9837 85.1538 69.8198 85.2603 69.7118 85.4096C66.1341 90.3786 56.9213 91.2839 56.8285 91.2921C56.8123 91.2953 56.7929 91.2992 56.7728 91.2998C46.5981 93.0011 43.6714 91.6809 43.4955 91.5945C43.3942 91.527 43.3092 91.5068 43.1886 91.4936C42.0975 91.3827 41.2854 90.9844 40.7765 90.3174C39.8691 89.13 40.1282 87.3922 40.1314 87.3748C40.1699 87.1483 40.0995 86.9165 39.9442 86.7486C39.7883 86.5774 39.5618 86.4909 39.3328 86.5092C38.6234 86.5686 37.8787 85.3524 37.6293 84.752C37.628 84.7455 37.6267 84.7391 37.6222 84.7332C36.3852 81.9816 37.8556 80.8662 37.9172 80.8204C38.1834 80.6365 38.2957 80.3079 38.2025 79.9964C38.1092 79.685 37.8209 79.476 37.4959 79.4695C35.8628 79.4456 35.6321 76.5018 35.6295 76.472C35.6274 76.4287 35.6183 76.3834 35.6091 76.338C34.8896 73.4606 37.3029 72.2565 37.4072 72.2055C37.6956 72.0644 37.8624 71.7554 37.8184 71.4375C37.7744 71.1197 37.534 70.8642 37.2187 70.8053C36.2871 70.6326 36.1275 68.6915 36.1357 68.1815C36.135 68.1614 36.1337 68.1381 36.133 68.1181C36.0572 66.9918 36.3256 66.1511 36.9478 65.5433C38.2694 64.2587 40.8057 64.4475 40.8297 64.4495C40.8569 64.4508 40.8874 64.4515 40.9147 64.4529C45.7989 64.3325 50.4046 63.2673 50.5978 63.2224C50.8105 63.1736 50.9906 63.0303 51.0895 62.8357C51.1884 62.6411 51.1958 62.4107 51.1079 62.2093C46.9147 52.5012 47.2248 47.9121 48.222 45.7725C48.7914 44.5525 49.759 43.7351 51.0944 43.3364C52.0136 43.0639 52.9821 43.1855 53.8164 43.6771C54.6513 44.1719 55.2214 44.958 55.4208 45.8949C56.4928 50.8504 58.7903 54.4798 60.0651 56.2005C60.6118 56.9374 61.1761 57.7786 61.846 58.8413C64.7691 63.4983 67.4703 63.7858 68.0216 63.7946L68.9973 63.9182L73.1588 84.5162L73.1672 84.5246Z" fill="#4F5D90"/>
<path d="M81.8578 86.3218C83.4479 86.0073 84.4821 84.4565 84.1615 82.8674L79.8728 61.6103C79.5522 60.0212 77.9956 58.9828 76.4056 59.2974L69.7084 60.6221C68.1184 60.9367 67.0842 62.4875 67.4048 64.0766L71.6934 85.3337C72.014 86.9228 73.5706 87.9612 75.1607 87.6466L81.8578 86.3218Z" fill="#5C6A79"/>
<path d="M69.8545 61.3508C68.6626 61.5866 67.892 62.742 68.1324 63.933L72.422 85.1905C72.6624 86.3815 73.8222 87.1551 75.0141 86.9193L81.712 85.5944C82.9039 85.3587 83.6745 84.2033 83.4341 83.0122L79.1444 61.7548C78.9041 60.5637 77.7443 59.7901 76.5524 60.0259L69.8545 61.3508ZM69.5605 59.8944L76.2585 58.5695C78.2504 58.1755 80.2003 59.476 80.6019 61.4665L84.8916 82.7239C85.2933 84.7144 83.9978 86.6569 82.0059 87.0509L75.308 88.3758C73.3161 88.7698 71.3662 87.4692 70.9645 85.4788L66.6749 64.2213C66.2732 62.2309 67.5687 60.2884 69.5605 59.8944Z" fill="#4F5D90"/>
<g opacity="0.6">
<path d="M69.8575 61.3521L76.5539 60.0272C77.7455 59.7915 78.9049 60.565 79.145 61.7559L83.43 83.0118C83.6231 83.9697 83.1613 84.9024 82.3567 85.3544C82.689 84.8815 82.8332 84.2774 82.7099 83.6658L80.1616 71.0249C79.4711 70.5894 78.8646 69.6022 78.6174 68.3756C78.3701 67.1491 78.5466 66.0036 79.016 65.342L78.4249 62.4099C78.1848 61.219 77.0254 60.4455 75.8338 60.6812L69.1374 62.006C68.9043 62.0522 68.6854 62.1358 68.4887 62.2455C68.8022 61.7964 69.2811 61.4661 69.8575 61.3521Z" fill="#72CBD9"/>
</g>
<path d="M50.0413 63.2683C50.1465 63.288 50.2908 63.3168 50.4188 63.3488C50.5501 63.3802 50.682 63.4148 50.8107 63.45C51.072 63.5231 51.3287 63.6072 51.5816 63.7056C52.0834 63.8997 52.558 64.1429 52.9749 64.4346C53.3925 64.7296 53.7432 65.0782 54.0024 65.4751C54.2583 65.8727 54.4033 66.3225 54.46 66.8033C54.5134 67.2846 54.4635 67.7897 54.339 68.3096C54.3229 68.397 54.2841 68.5057 54.2421 68.6151C54.1961 68.7219 54.1437 68.8299 54.0874 68.9354C53.9747 69.1463 53.8269 69.3338 53.6686 69.5032C53.345 69.84 52.9453 70.1008 52.4772 70.2403C52.3577 70.2673 52.2408 70.3072 52.1207 70.3309L51.7537 70.3865L50.8775 70.4448C48.5391 70.6031 46.2001 70.7749 43.8644 70.9629C41.5274 71.1445 39.1904 71.3429 36.8522 71.5685C36.7989 71.5723 36.7613 71.6201 36.7685 71.6726C36.7751 71.7218 36.8161 71.7576 36.8635 71.7583C39.2139 71.7763 41.5622 71.7677 43.9099 71.739C46.2595 71.7201 48.6059 71.6849 50.9561 71.6355L51.837 71.6167C52.0032 71.6041 52.1747 71.5837 52.3429 71.564C52.5105 71.541 52.6774 71.498 52.8423 71.4621C53.5079 71.297 54.1439 70.9357 54.642 70.4432C54.8891 70.1956 55.1108 69.9227 55.287 69.6252C55.3751 69.4764 55.4554 69.3224 55.5279 69.1632C55.5965 69.0014 55.6651 68.8397 55.7129 68.6416C55.8762 68.0298 55.9628 67.3557 55.9019 66.6703C55.8417 65.9881 55.6164 65.2914 55.2373 64.7024C55.0491 64.406 54.8265 64.14 54.5877 63.894C54.3411 63.6596 54.0835 63.4376 53.8071 63.2563C53.2614 62.8788 52.6698 62.6081 52.0699 62.3963C51.7683 62.2907 51.4667 62.202 51.1613 62.1275C51.0086 62.0903 50.8539 62.0601 50.696 62.0306C50.5348 62.0018 50.3919 61.9795 50.2054 61.959C49.8429 61.9194 49.5139 62.1797 49.4756 62.541C49.4378 62.8888 49.6774 63.2054 50.0205 63.2657L50.0517 63.2696L50.0413 63.2683Z" fill="#4F5D90"/>
<path d="M52.989 71.3623C53.0221 71.376 53.0891 71.4065 53.1411 71.43C53.197 71.456 53.2536 71.4853 53.3069 71.5152C53.4168 71.5744 53.5306 71.6362 53.6386 71.7025C53.8571 71.8312 54.0659 71.9788 54.2623 72.1321C54.6501 72.4465 54.9833 72.8087 55.2328 73.2076C55.4823 73.6066 55.6318 74.0455 55.7001 74.5004C55.7612 74.9534 55.71 75.4184 55.5697 75.8606C55.4295 76.3027 55.1878 76.711 54.8719 77.053C54.7176 77.225 54.5372 77.3853 54.3406 77.5319C54.144 77.6785 53.9363 77.8037 53.7188 77.9141C53.2832 78.1314 52.8027 78.2768 52.3031 78.345C52.1849 78.3616 52.0394 78.3768 51.8972 78.3914L51.4736 78.4346L50.6265 78.5208C48.364 78.755 46.1034 78.9988 43.8436 79.2628C41.5817 79.517 39.3238 79.7907 37.0679 80.0909C37.0159 80.1011 36.9809 80.1451 36.9881 80.1976C36.9979 80.2462 37.0389 80.2819 37.0857 80.2794C39.3635 80.2209 41.6366 80.1397 43.9117 80.0345C46.1862 79.9429 48.46 79.8312 50.7311 79.7066L51.5828 79.6598L52.0103 79.6362C52.1538 79.628 52.2877 79.6219 52.4533 79.606C53.0834 79.5491 53.7179 79.3969 54.3048 79.1261C54.5983 78.9907 54.8839 78.8333 55.1506 78.6492C55.4141 78.4658 55.6665 78.261 55.9046 78.0186C56.3716 77.5389 56.7267 76.9566 56.9433 76.3242C57.1664 75.6904 57.24 75.0019 57.1512 74.3286C57.1373 74.1595 57.0877 73.9975 57.0575 73.8316C57.0274 73.6657 56.968 73.5055 56.9125 73.348C56.8831 73.2695 56.8564 73.1872 56.8238 73.1094L56.7136 72.8817C56.6745 72.8052 56.6393 72.7313 56.6008 72.658L56.4666 72.4452C56.109 71.8789 55.6366 71.4127 55.1305 71.0307C54.8729 70.8423 54.6082 70.6687 54.3312 70.5178C54.194 70.4404 54.0516 70.3708 53.9066 70.3051C53.8325 70.2725 53.7616 70.2393 53.6849 70.2107C53.6075 70.1787 53.5419 70.1546 53.4398 70.1175C53.0946 69.9969 52.7161 70.1794 52.5998 70.5225C52.4866 70.8481 52.6457 71.2009 52.9545 71.3421L53.0026 71.363L52.989 71.3623Z" fill="#4F5D90"/>
<path d="M50.8764 93.3988C53.6321 92.8541 54.324 90.8221 54.4253 90.4721C55.3951 87.8465 53.5205 86.2611 52.6686 85.6989C52.3614 85.497 51.9536 85.581 51.7524 85.8867C51.5512 86.1925 51.6368 86.5997 51.944 86.8016C52.842 87.3916 53.7836 88.4309 53.1773 90.0354C53.1689 90.0606 53.1605 90.0858 53.1527 90.1143C53.1353 90.1783 52.6724 91.842 50.286 92.1621C49.9255 92.2132 49.6718 92.5428 49.721 92.9033C49.7703 93.2639 50.1047 93.5176 50.466 93.4698C50.6073 93.452 50.7441 93.4283 50.8771 93.402L50.8764 93.3988Z" fill="#4F5D90"/>
<path d="M53.1905 79.3737C53.8289 79.6756 54.3851 80.0713 54.7276 80.58C54.8976 80.8362 55.0241 81.1111 55.0961 81.4171C55.1674 81.7197 55.1997 82.0469 55.1723 82.3624C55.122 82.999 54.8911 83.6276 54.4852 84.1423C54.0872 84.6623 53.5343 85.0679 52.9129 85.3017L52.9733 85.2831C51.8603 85.5735 50.7446 85.8509 49.619 86.0797C48.4955 86.3183 47.3621 86.5251 46.2228 86.6859C45.0836 86.8466 43.9397 86.9679 42.7872 87.0302C41.6355 87.0957 40.4823 87.0874 39.3276 86.9884C39.2763 86.985 39.2296 87.0212 39.2232 87.073C39.2193 87.1209 39.2512 87.1618 39.2974 87.1729C39.8706 87.3024 40.4496 87.3937 41.0331 87.4572C41.6147 87.5278 42.204 87.5698 42.7875 87.5996C43.9622 87.6475 45.14 87.6274 46.31 87.5515C47.4845 87.4815 48.6511 87.3389 49.8138 87.1769C50.9764 87.0148 52.1286 86.7841 53.2775 86.5541C53.2872 86.5521 53.3002 86.5496 53.31 86.5476L53.3392 86.5419C54.2067 86.2561 54.9946 85.7266 55.584 85.0173C56.1656 84.3027 56.5448 83.4057 56.6122 82.4691C56.6491 82.0002 56.6152 81.5318 56.4982 81.0696C56.3844 80.6069 56.1751 80.1562 55.8957 79.7598C55.6138 79.3673 55.2598 79.0361 54.8826 78.7736C54.5047 78.5078 54.0996 78.3081 53.69 78.153C53.3494 78.0214 52.9651 78.1916 52.8344 78.5308C52.7108 78.8551 52.8582 79.2168 53.1684 79.3646L53.1833 79.3717L53.1905 79.3737Z" fill="#4F5D90"/>
<path d="M56.2471 52.8819C56.9925 52.7346 57.776 52.4585 58.4988 51.9655C58.7624 51.7855 58.828 51.4258 58.6466 51.1621C58.4653 50.8983 58.1047 50.8316 57.8411 51.0116C56.4699 51.9492 54.7639 51.9296 53.8715 51.8334C53.5887 51.8018 53.3465 51.6039 53.2566 51.3255C52.0795 47.6836 52.5292 45.9386 53.1179 45.1153C53.7797 44.1867 54.7912 44.155 54.8347 44.1532C55.1537 44.1473 55.4074 43.8851 55.4011 43.5699C55.3947 43.2548 55.1375 42.9993 54.8204 42.998C54.7562 42.9972 53.2072 43.0207 52.1921 44.4197C51.0981 45.9286 51.0853 48.3683 52.1581 51.6773C52.3895 52.3889 53.0154 52.9014 53.756 52.9805C54.3552 53.0438 55.265 53.0761 56.2471 52.8819Z" fill="#4F5D90"/>
<path d="M44.6058 32.0316C44.9463 31.9644 45.2521 31.7929 45.4922 31.5299L48.001 28.815C48.0314 28.782 48.0657 28.7685 48.0884 28.764C48.1111 28.7595 48.1514 28.7583 48.189 28.7778L51.5623 30.3312C51.8857 30.4796 52.2355 30.525 52.576 30.4578C53.0948 30.3553 53.5365 30.0054 53.7586 29.5203C53.9788 29.0424 53.9529 28.4985 53.6898 28.0318L51.868 24.7978C51.8315 24.7343 51.8398 24.6586 51.8896 24.605L54.3983 21.8901C54.8935 21.3544 54.98 20.5997 54.6218 19.9632C54.2636 19.3267 53.5687 19.0092 52.8553 19.1501L49.2204 19.8678C49.1491 19.8819 49.0783 19.8488 49.0418 19.7852L47.22 16.5513C46.8618 15.9148 46.1669 15.5973 45.4503 15.7388C44.7337 15.8803 44.2198 16.4398 44.1364 17.1602L43.7111 20.8379C43.7022 20.9104 43.6497 20.9679 43.5784 20.982L39.9435 21.6997C39.2269 21.8412 38.713 22.4008 38.6296 23.1212C38.5469 23.8448 38.9207 24.5086 39.5864 24.8149L42.9597 26.3684C43.0266 26.3989 43.0637 26.4657 43.0548 26.5382L42.6295 30.2158C42.5684 30.7466 42.7563 31.2584 43.1458 31.616C43.5397 31.9794 44.087 32.1341 44.6026 32.0323L44.6058 32.0316Z" fill="#FFCA28"/>
<path d="M45.6001 16.4651C45.2435 16.5355 44.9281 16.81 44.8752 17.2482L44.45 20.9258C44.4041 21.3154 44.1141 21.632 43.725 21.7089L40.0902 22.4266C39.2277 22.597 39.0914 23.7724 39.8909 24.1399L43.2641 25.6933C43.6213 25.8585 43.8356 26.2338 43.7897 26.6235L43.3645 30.3011C43.2868 30.9665 43.8963 31.412 44.4508 31.3025C45.0052 31.193 44.7937 31.1809 44.9374 31.0245L47.4461 28.3096C47.5788 28.1655 47.7518 28.0707 47.9366 28.0342C48.1215 27.9977 48.3142 28.0169 48.4967 28.1021L51.8699 29.6555C52.0595 29.7427 52.2523 29.7619 52.4274 29.7273C52.9851 29.6172 53.371 28.9752 53.0401 28.3905L51.2151 25.1572C51.021 24.8149 51.0726 24.3871 51.338 24.099L53.8467 21.3841C54.4408 20.7379 53.8611 19.7073 52.9954 19.8783L49.3605 20.596C48.9747 20.6722 48.5805 20.4907 48.3864 20.1485L46.5613 16.9152C46.3451 16.5302 45.9471 16.3966 45.5872 16.4677L45.6001 16.4651ZM45.292 15.0103C46.3134 14.8086 47.3434 15.2822 47.858 16.191L49.4739 19.058L52.697 18.4216C53.7184 18.2199 54.7484 18.6935 55.2597 19.6029C55.771 20.5123 55.6437 21.6321 54.9389 22.3977L52.7149 24.8038L54.3309 27.6708C54.7145 28.3495 54.7494 29.1374 54.4284 29.834C54.1082 30.5338 53.4657 31.0413 52.7135 31.1898C51.9612 31.3383 51.7125 31.2258 51.2436 31.0085L48.2535 29.6321L46.0296 32.0381C45.6807 32.4135 45.2362 32.6663 44.7434 32.7637C43.9911 32.9122 43.2036 32.6871 42.6322 32.1634C42.0647 31.6423 41.7892 30.8985 41.8797 30.1295L42.2546 26.8694L39.2646 25.4929C38.3164 25.0571 37.7588 24.0692 37.8798 23.0349C37.9976 22.0012 38.7639 21.1729 39.7853 20.9713L43.0084 20.3348L43.3833 17.0746C43.501 16.041 44.2674 15.2127 45.292 15.0103Z" fill="#4F5D90"/>
<g opacity="0.6">
<path d="M44.2817 21.4376C44.2354 21.8284 43.9446 22.1458 43.5547 22.2227L39.9088 22.9414C39.6618 22.9901 39.4754 23.1214 39.3515 23.2944C39.364 22.9035 39.6151 22.523 40.0797 22.4314L43.7256 21.7127C43.9596 21.6666 44.159 21.5327 44.29 21.3447L44.2785 21.4382L44.2817 21.4376Z" fill="#72CBD9"/>
</g>
<g opacity="0.6">
<path d="M52.8745 28.8906L51.0562 25.6599C50.8823 25.3477 50.9064 24.9661 51.1152 24.6825C51.1102 24.8416 51.146 25.0028 51.2291 25.1479L53.0474 28.3785C53.2414 28.7238 53.1862 29.0846 52.9936 29.3482C52.9966 29.1962 52.9621 29.0415 52.8738 28.8873L52.8745 28.8906Z" fill="#72CBD9"/>
</g>
<g opacity="0.6">
<path d="M52.8599 20.3865L49.2202 21.1048C48.8341 21.1809 48.4397 20.9994 48.2455 20.657L46.4196 17.4226C46.0677 16.8014 45.2408 16.8332 44.8862 17.331L44.8964 17.2481C44.9964 16.3761 46.161 16.1462 46.593 16.9133L48.419 20.1477C48.6132 20.4901 49.0044 20.6723 49.3936 20.5955L53.0334 19.8772C53.8606 19.714 54.4248 20.6504 53.9517 21.2963C53.9557 20.7666 53.4827 20.2636 52.8599 20.3865Z" fill="#72CBD9"/>
</g>
<g opacity="0.2">
<path d="M45.6305 16.9155L47.0544 23.9893L44.3442 21.376L44.9597 16.8934L45.6305 16.9155Z" fill="#4F5D90"/>
</g>
<g opacity="0.2">
<path d="M47.0537 23.983L52.7751 29.5513L52.3607 30.0843L47.8644 28.2262L47.0537 23.983Z" fill="#4F5D90"/>
</g>
<g opacity="0.2">
<path d="M54.1426 21.0693L47.06 23.9829L51.0091 24.692L54.1426 21.0693Z" fill="#4F5D90"/>
</g>
<g opacity="0.2">
<path d="M47.0454 23.9854L43.4515 31.5406L43.2423 29.7571L43.8807 26.2L47.0454 23.9854Z" fill="#4F5D90"/>
</g>
<path d="M66.0967 39.8769C66.4534 39.8065 66.7741 39.6252 67.0285 39.3494L69.5372 36.6344C69.5482 36.6222 69.5631 36.6125 69.5826 36.6086C69.602 36.6048 69.6163 36.6087 69.6345 36.6152L73.0077 38.1686C73.3461 38.3241 73.7167 38.3722 74.0733 38.3018C74.6181 38.1942 75.0831 37.8262 75.3168 37.3152C75.5487 36.8114 75.5208 36.241 75.2427 35.7503L73.4176 32.517C73.4014 32.4865 73.4032 32.4458 73.4285 32.4206L75.9372 29.7057C76.4576 29.1448 76.546 28.3494 76.1715 27.6824C75.7937 27.016 75.0644 26.6784 74.3153 26.8263L70.6772 27.5447C70.6415 27.5518 70.6078 27.5349 70.5882 27.505L68.7632 24.2718C68.3854 23.6054 67.6561 23.2678 66.9071 23.4157C66.1581 23.5636 65.6124 24.1496 65.5272 24.9108L65.1019 28.5884C65.0987 28.6227 65.0709 28.6518 65.0352 28.6588L61.3971 29.3773C60.6448 29.5258 60.1024 30.1112 60.0172 30.8723C59.928 31.6309 60.3227 32.331 61.0215 32.651L64.3948 34.2044C64.4279 34.2181 64.4455 34.2551 64.4423 34.2894L64.017 37.967C63.9514 38.5256 64.1511 39.0621 64.5614 39.4391C64.9761 39.822 65.5487 39.9851 66.0935 39.8775L66.0967 39.8769Z" fill="#FFCA28"/>
<path d="M67.069 24.228C66.7123 24.2984 66.3969 24.5729 66.3473 25.0104L65.922 28.6881C65.8762 29.0777 65.5862 29.3943 65.2003 29.4705L61.5622 30.1889C60.6997 30.3592 60.5635 31.5346 61.363 31.9022L64.7362 33.4556C65.0934 33.6208 65.3076 33.9961 65.2618 34.3858L64.8365 38.0634C64.7588 38.7288 65.3684 39.1742 65.9228 39.0647C66.4773 38.9552 66.2658 38.9431 66.4095 38.7868L68.9182 36.0718C69.0508 35.9278 69.2239 35.833 69.4087 35.7965C69.5935 35.76 69.7869 35.7824 69.9687 35.8644L73.3419 37.4178C73.5316 37.505 73.7243 37.5242 73.8994 37.4896C74.4571 37.3795 74.843 36.7374 74.5122 36.1527L72.6871 32.9195C72.493 32.5772 72.5446 32.1494 72.81 31.8612L75.3187 29.1463C75.9161 28.4996 75.3332 27.4696 74.4674 27.6405L70.8326 28.3583C70.4467 28.4345 70.0525 28.253 69.8617 27.9101L68.0366 24.6768C67.8204 24.2918 67.4224 24.1582 67.0657 24.2286L67.069 24.228ZM66.7377 22.6094C67.8305 22.3936 68.9313 22.9004 69.4784 23.8701L71.0357 26.6308L74.1421 26.0174C75.2348 25.8016 76.3356 26.3084 76.8827 27.2781C77.4298 28.2478 77.2917 29.4472 76.5363 30.2632L74.3927 32.5827L75.95 35.3434C76.3597 36.0674 76.396 36.9124 76.0544 37.6568C75.7102 38.4051 75.0276 38.9474 74.2235 39.1062C73.4193 39.265 73.1518 39.1427 72.6504 38.915L69.7682 37.588L67.6245 39.9075C67.2543 40.3107 66.7754 40.577 66.2469 40.6814C65.4428 40.8402 64.6014 40.5988 63.9923 40.0387C63.387 39.4813 63.0914 38.6876 63.1875 37.8636L63.5497 34.7238L60.6675 33.3968C59.6557 32.9297 59.0578 31.8757 59.1851 30.7728C59.3124 29.6699 60.1305 28.7809 61.2232 28.5651L64.3296 27.9517L64.6918 24.8119C64.8191 23.709 65.6379 22.8232 66.7306 22.6074L66.7377 22.6094Z" fill="#4F5D90"/>
<g opacity="0.6">
<path d="M65.7549 29.2012C65.7086 29.5921 65.4177 29.9095 65.0278 29.9864L61.3819 30.7051C61.135 30.7537 60.9486 30.8851 60.8246 31.0581C60.8371 30.6672 61.0882 30.2867 61.5529 30.1951L65.1988 29.4764C65.4327 29.4303 65.6321 29.2964 65.7632 29.1084L65.7516 29.2019L65.7549 29.2012Z" fill="#72CBD9"/>
</g>
<g opacity="0.6">
<path d="M74.3403 36.6533L72.522 33.4226C72.3481 33.1104 72.3722 32.7288 72.581 32.4452C72.576 32.6043 72.6118 32.7655 72.6949 32.9106L74.5132 36.1412C74.7072 36.4865 74.652 36.8473 74.4594 37.1109C74.4624 36.9589 74.4279 36.8042 74.3397 36.65L74.3403 36.6533Z" fill="#72CBD9"/>
</g>
<g opacity="0.6">
<path d="M74.3301 28.1502L70.6904 28.8684C70.3043 28.9446 69.9099 28.763 69.7158 28.4207L67.8898 25.1863C67.5379 24.5651 66.711 24.5968 66.3565 25.0947L66.3667 25.0118C66.4666 24.1397 67.6312 23.9099 68.0633 24.677L69.8892 27.9114C70.0834 28.2538 70.4746 28.436 70.8638 28.3592L74.5036 27.6409C75.3308 27.4777 75.895 28.4141 75.422 29.06C75.426 28.5302 74.953 28.0273 74.3301 28.1502Z" fill="#72CBD9"/>
</g>
<g opacity="0.2">
<path d="M67.1047 24.6772L68.5285 31.7511L65.8183 29.1377L66.4339 24.6551L67.1047 24.6772Z" fill="#4F5D90"/>
</g>
<g opacity="0.2">
<path d="M68.5273 31.7457L74.2488 37.314L73.8343 37.847L69.3381 35.9889L68.5273 31.7457Z" fill="#4F5D90"/>
</g>
<g opacity="0.2">
<path d="M75.6147 28.832L68.5322 31.7456L72.4812 32.4547L75.6147 28.832Z" fill="#4F5D90"/>
</g>
<g opacity="0.2">
<path d="M68.5151 31.748L64.9212 39.3033L64.712 37.5198L65.3505 33.9627L68.5151 31.748Z" fill="#4F5D90"/>
</g>
<path d="M26.4563 47.7174C26.8129 47.647 27.1337 47.4657 27.3881 47.1898L29.8968 44.4749C29.9078 44.4627 29.9227 44.453 29.9421 44.4491C29.9616 44.4453 29.9759 44.4492 29.9941 44.4557L33.3673 46.0091C33.7057 46.1646 34.0762 46.2127 34.4329 46.1422C34.9776 46.0347 35.4427 45.6667 35.6764 45.1557C35.9082 44.6519 35.8803 44.0815 35.6055 43.5901L33.7804 40.3569C33.7641 40.3264 33.766 40.2856 33.7913 40.2604L36.3 37.5455C36.8204 36.9847 36.9088 36.1892 36.5343 35.5222C36.1565 34.8558 35.4272 34.5182 34.6781 34.6662L31.04 35.3846C31.0043 35.3916 30.9706 35.3747 30.951 35.3449L29.126 32.1116C28.7482 31.4452 28.0189 31.1076 27.2699 31.2555C26.5208 31.4034 25.9752 31.9895 25.89 32.7506L25.4647 36.4283C25.4615 36.4626 25.4337 36.4916 25.398 36.4987L21.7599 37.2171C21.0076 37.3657 20.4652 37.951 20.38 38.7122C20.2908 39.4708 20.6855 40.1708 21.3843 40.4909L24.7575 42.0443C24.7907 42.058 24.8083 42.0949 24.8051 42.1292L24.3798 45.8069C24.3142 46.3654 24.5139 46.9019 24.9242 47.279C25.3389 47.6618 25.9115 47.825 26.4563 47.7174Z" fill="#FFCA28"/>
<path d="M27.4317 32.0682C27.075 32.1386 26.7596 32.4131 26.7068 32.8513L26.2815 36.5289C26.2356 36.9186 25.9457 37.2352 25.5598 37.3114L21.9217 38.0298C21.0592 38.2001 20.923 39.3755 21.7224 39.743L25.0956 41.2964C25.4528 41.4617 25.6671 41.837 25.6213 42.2266L25.196 45.9042C25.1183 46.5696 25.7278 47.0151 26.2823 46.9056C26.8368 46.7961 26.6252 46.784 26.7689 46.6276L29.2776 43.9127C29.4103 43.7686 29.5833 43.6738 29.7681 43.6373C29.953 43.6008 30.1464 43.6233 30.3282 43.7052L33.7014 45.2587C33.891 45.3458 34.0838 45.365 34.2589 45.3304C34.8166 45.2203 35.2025 44.5783 34.8716 43.9936L33.0466 40.7603C32.8525 40.4181 32.9041 39.9902 33.1695 39.7021L35.6782 36.9872C36.2723 36.3411 35.6926 35.3104 34.8269 35.4814L31.1888 36.1998C30.8029 36.276 30.4087 36.0945 30.2179 35.7516L28.3929 32.5183C28.1766 32.1333 27.7786 31.9997 27.4219 32.0701L27.4317 32.0682ZM27.094 30.4509C28.1867 30.2351 29.2875 30.7419 29.8346 31.7116L31.392 34.4723L34.4983 33.8589C35.591 33.6431 36.6918 34.1499 37.2389 35.1196C37.786 36.0893 37.6479 37.2886 36.8958 38.104L34.7522 40.4235L36.3095 43.1842C36.7192 43.9083 36.7554 44.7533 36.4139 45.4977C36.0697 46.246 35.3871 46.7883 34.5829 46.9471C33.7788 47.1059 33.5112 46.9836 33.0099 46.7559L30.1276 45.4289L27.984 47.7483C27.6138 48.1515 27.1349 48.4178 26.6064 48.5222C25.8022 48.681 24.9609 48.4396 24.3517 47.8796C23.7465 47.3221 23.4508 46.5284 23.547 45.7045L23.9092 42.5647L21.027 41.2377C20.0151 40.7706 19.4172 39.7166 19.5478 38.6131C19.6751 37.5102 20.4939 36.6244 21.5866 36.4086L24.6929 35.7952L25.0552 32.6554C25.1825 31.5525 26.0012 30.6667 27.094 30.4509Z" fill="#4F5D90"/>
<g opacity="0.6">
<path d="M26.1128 37.0401C26.0665 37.4309 25.7756 37.7484 25.3857 37.8252L21.7398 38.5439C21.4929 38.5926 21.3065 38.7239 21.1825 38.897C21.195 38.5061 21.4461 38.1255 21.9108 38.0339L25.5567 37.3152C25.7906 37.2691 25.99 37.1352 26.1211 36.9473L26.1095 37.0408L26.1128 37.0401Z" fill="#72CBD9"/>
</g>
<g opacity="0.6">
<path d="M34.6982 44.4941L32.8799 41.2634C32.706 40.9512 32.7301 40.5696 32.9389 40.286C32.9339 40.4451 32.9697 40.6063 33.0528 40.7514L34.8711 43.9821C35.0651 44.3273 35.0099 44.6882 34.8173 44.9517C34.8203 44.7997 34.7858 44.645 34.6976 44.4908L34.6982 44.4941Z" fill="#72CBD9"/>
</g>
<g opacity="0.6">
<path d="M34.6875 35.99L31.0478 36.7083C30.6618 36.7845 30.2674 36.6029 30.0732 36.2605L28.2472 33.0261C27.8953 32.4049 27.0685 32.4367 26.7139 32.9345L26.7241 32.8516C26.824 31.9796 27.9886 31.7498 28.4207 32.5168L30.2466 35.7512C30.4408 36.0936 30.832 36.2758 31.2213 36.199L34.861 35.4808C35.6882 35.3175 36.2524 36.2539 35.7794 36.8998C35.7834 36.3701 35.3104 35.8671 34.6875 35.99Z" fill="#72CBD9"/>
</g>
<g opacity="0.2">
<path d="M27.465 32.518L28.8889 39.5919L26.1787 36.9785L26.7942 32.4959L27.465 32.518Z" fill="#4F5D90"/>
</g>
<g opacity="0.2">
<path d="M28.8887 39.5856L34.6101 45.1538L34.1956 45.6869L29.6994 43.8287L28.8887 39.5856Z" fill="#4F5D90"/>
</g>
<g opacity="0.2">
<path d="M35.9756 36.6719L28.8931 39.5854L32.8421 40.2945L35.9756 36.6719Z" fill="#4F5D90"/>
</g>
<g opacity="0.2">
<path d="M28.873 39.5889L25.2759 47.1448L25.0699 45.3606L25.7084 41.8035L28.873 39.5889Z" fill="#4F5D90"/>
</g>
<g opacity="0.2">
<path d="M53.5136 88.1428C53.5136 88.1428 50.607 92.8988 40.0556 90.4414L42.7324 92.039L52.1238 92.5492C52.1238 92.5492 55.761 91.3263 53.5136 88.1428Z" fill="#4F5D90"/>
</g>
<g opacity="0.2">
<path d="M52.6657 86.0663C52.6657 86.0663 56.8094 84.5566 55.9312 81.8699C55.9312 81.8699 55.8655 79.8402 53.0945 79.0557C53.0945 79.0557 57.8029 76.9565 56.2106 73.2331C56.2106 73.2331 55.3921 71.0764 52.5927 70.8528C52.5927 70.8528 57.483 68.6705 54.5212 64.8513L52.3734 63.1662C51.6332 62.8179 50.6954 62.5256 49.6824 62.5779L48.9205 58.798C48.9205 58.798 45.9726 50.019 47.4931 48.7927C47.4931 48.7927 49.1891 57.2069 52.0101 59.5093C52.0101 59.5093 53.0771 60.5265 53.6402 62.017C54.6731 62.3309 59.0103 63.953 57.7559 68.8049L57.0134 70.5503C57.0134 70.5503 61.2915 72.5644 59.0948 76.7009C59.0948 76.7009 58.3843 78.1875 57.3163 78.7354C57.3163 78.7354 60.1041 80.4554 59.2014 83.4945C59.2014 83.4945 58.7143 84.3851 57.843 85.3247C56.8502 86.3961 57.4104 88.1564 58.8501 88.4167C60.8522 88.7778 64.0074 88.6617 68.8257 86.9748C68.8257 86.9748 60.5101 92.9107 52.1857 92.5385C52.1857 92.5385 56.2268 89.9184 52.6625 86.067L52.6657 86.0663Z" fill="#4F5D90"/>
</g>
<g opacity="0.2">
<path d="M68.622 61.8579C68.622 61.8579 73.2919 85.8397 83.7861 84.4369L82.7519 85.9878L73.6836 87.7816L71.4483 85.6996L67.2299 62.4699L68.622 61.8579Z" fill="#4F5D90"/>
</g>
<g opacity="0.2">
<path d="M52.489 45.8029C52.489 45.8029 52.6892 47.0427 53.0645 48.332C53.6905 50.4775 55.9405 51.7363 58.0911 51.1362C58.1137 51.1317 58.1358 51.124 58.1578 51.1163C58.1578 51.1163 55.6579 53.1221 52.9765 52.1639C52.9765 52.1639 51.8455 48.0376 52.4929 45.8054L52.489 45.8029Z" fill="#4F5D90"/>
</g>
<path d="M22.6513 73.6143C22.6935 73.606 22.7343 73.5912 22.7732 73.5667C22.9346 73.4641 22.9816 73.2461 22.8749 73.0853C21.7474 71.3451 20.6643 70.8082 19.8318 70.7269C19.5193 68.6641 17.6758 67.3852 17.5816 67.3197C17.5621 67.3067 17.5394 67.2943 17.5173 67.2852C17.3667 67.2241 17.22 67.1655 17.0778 67.1128C17.0759 67.1031 17.0732 67.0901 17.0713 67.0804C16.7231 65.3916 15.9548 64.2269 14.7801 63.6206C12.7054 62.549 10.1681 63.6429 10.0598 63.6912C9.8835 63.7698 9.80342 63.9742 9.88288 64.1504C9.96235 64.3266 10.1675 64.4073 10.3438 64.3287C10.3652 64.3178 12.6899 63.3231 14.464 64.242C15.3569 64.7053 15.9774 65.5895 16.3041 66.8717C15.2363 66.5944 14.3872 66.6309 13.7682 66.9889C13.1882 67.3223 12.8247 67.9261 12.7217 68.7343C12.6263 69.4636 13.0622 70.1519 13.7574 70.3714C14.7448 70.6848 15.6933 70.3392 16.5038 69.3777C16.8657 68.9493 17.0769 68.4261 17.1207 67.8754C17.1538 67.889 17.183 67.9001 17.2161 67.9137C17.4292 68.0669 18.8351 69.1494 19.1241 70.7624C18.2116 70.9527 17.5492 71.6627 17.3512 72.3012C17.2305 72.6886 17.2967 73.0325 17.5287 73.2459C17.9173 73.6001 18.4013 73.6593 18.8875 73.4118C19.3276 73.1868 19.6506 72.7661 19.7671 72.2582C19.8341 71.9723 19.8666 71.6998 19.874 71.4358C20.5249 71.5361 21.3601 72.0311 22.2865 73.4608C22.3658 73.5866 22.5119 73.6419 22.6481 73.615L22.6513 73.6143ZM19.1701 71.4738C19.1608 71.6777 19.1352 71.8847 19.0843 72.1002C19.0115 72.4075 18.8232 72.6602 18.5665 72.7917C18.282 72.9355 18.1183 72.8432 17.9949 72.7329C17.9291 72.6247 18.1279 72.04 18.7176 71.6709C18.8284 71.6019 18.9814 71.5246 19.1701 71.4738ZM16.4274 67.6319C16.4328 68.1089 16.2721 68.5649 15.9645 68.9287C15.3418 69.6679 14.6662 69.9293 13.9638 69.7078C13.5925 69.5892 13.3629 69.2204 13.4115 68.827C13.4869 68.233 13.7237 67.8192 14.1164 67.5935C14.6206 67.3019 15.4096 67.3178 16.4274 67.6319Z" fill="#4F5D90"/>
<path d="M13.1701 25.3664C13.209 25.3588 13.2465 25.3446 13.2834 25.3272C13.484 25.2202 13.5613 24.9693 13.4534 24.7685L12.3704 22.7407C12.2625 22.5399 12.0117 22.4649 11.8105 22.5687C11.6099 22.6757 11.5326 22.9266 11.6405 23.1274L12.7235 25.1552C12.8106 25.3197 12.9953 25.401 13.1701 25.3664Z" fill="#4F5D90"/>
<path d="M16.3713 31.3518C16.4102 31.3441 16.4477 31.3299 16.4846 31.3126C16.6852 31.2056 16.7624 30.9547 16.6545 30.7538L15.5716 28.7261C15.4637 28.5252 15.2129 28.4503 15.0117 28.554C14.8111 28.661 14.7338 28.9119 14.8417 29.1128L15.9246 31.1405C16.0117 31.3051 16.1965 31.3863 16.3713 31.3518Z" fill="#4F5D90"/>
<path d="M12.0726 26.6919C12.2186 26.6631 12.3423 26.5578 12.3861 26.4077C12.4532 26.1889 12.3286 25.9573 12.1097 25.8926L9.9048 25.2187C9.68521 25.1508 9.45374 25.274 9.38998 25.4921C9.32297 25.7109 9.44749 25.9425 9.66642 26.0071L11.8713 26.681C11.9395 26.7013 12.0077 26.7047 12.0726 26.6919Z" fill="#4F5D90"/>
<path d="M18.5911 28.6743C18.7372 28.6455 18.8609 28.5403 18.9047 28.3901C18.9717 28.1713 18.8472 27.9397 18.6282 27.8751L16.4234 27.2011C16.2038 27.1332 15.9723 27.2564 15.9085 27.4745C15.8415 27.6933 15.966 27.9249 16.185 27.9895L18.3899 28.6635C18.4581 28.6837 18.5263 28.6871 18.5911 28.6743Z" fill="#4F5D90"/>
<path d="M10.2088 29.473C10.2478 29.4654 10.2854 29.4512 10.3224 29.4338L12.3532 28.3592C12.5543 28.2522 12.6317 28.0009 12.5235 27.7997C12.4152 27.5985 12.1637 27.5233 11.9619 27.6272L9.93115 28.7017C9.73002 28.8088 9.6526 29.0601 9.76084 29.2613C9.84822 29.4261 10.0335 29.5076 10.2088 29.473Z" fill="#4F5D90"/>
<path d="M16.222 26.2934C16.2609 26.2857 16.2986 26.2715 16.3356 26.2541L18.3664 25.1795C18.5675 25.0725 18.6449 24.8212 18.5367 24.62C18.4284 24.4188 18.1769 24.3437 17.9751 24.4475L15.9443 25.522C15.7432 25.6291 15.6658 25.8804 15.774 26.0816C15.8614 26.2464 16.0467 26.3279 16.222 26.2934Z" fill="#4F5D90"/>
<path d="M12.8959 31.6843C13.0417 31.6555 13.1653 31.5502 13.2092 31.4002L13.8743 29.2051C13.9413 28.9865 13.8171 28.7553 13.5985 28.6908C13.3792 28.6231 13.148 28.7462 13.0842 28.9642L12.419 31.1592C12.352 31.3778 12.4763 31.6091 12.6949 31.6736C12.763 31.6938 12.8311 31.6971 12.8959 31.6843Z" fill="#4F5D90"/>
<path d="M14.8939 25.2C15.0398 25.1711 15.1634 25.0659 15.2072 24.9158L15.8723 22.7208C15.9394 22.5022 15.8151 22.2709 15.5965 22.2064C15.3772 22.1387 15.146 22.2618 15.0822 22.4798L14.4171 24.6749C14.3501 24.8935 14.4743 25.1247 14.6929 25.1892C14.761 25.2094 14.8291 25.2128 14.8939 25.2Z" fill="#4F5D90"/>
<path d="M67.7188 7.97091C67.7576 7.96323 67.7952 7.94907 67.8321 7.93168C68.0326 7.8247 68.1099 7.5738 68.002 7.37296L66.8054 5.13209C66.6975 4.93126 66.4467 4.8563 66.2455 4.96005C66.0449 5.06703 65.9677 5.31793 66.0756 5.51876L67.2721 7.75963C67.3592 7.92418 67.544 8.00547 67.7188 7.97091Z" fill="#4F5D90"/>
<path d="M71.2491 14.5803C71.2879 14.5726 71.3254 14.5584 71.3623 14.5411C71.5629 14.4341 71.6402 14.1832 71.5323 13.9823L70.3357 11.7415C70.2278 11.5406 69.977 11.4657 69.7758 11.5694C69.5752 11.6764 69.4979 11.9273 69.6058 12.1281L70.8024 14.369C70.8895 14.5336 71.0742 14.6148 71.2491 14.5803Z" fill="#4F5D90"/>
<path d="M66.5057 9.4333C66.6517 9.40451 66.7755 9.29922 66.8193 9.14904C66.8863 8.93025 66.7618 8.69868 66.5428 8.63401L64.1073 7.88758C63.8877 7.81967 63.6562 7.94283 63.5924 8.16098C63.5254 8.37977 63.6499 8.61134 63.8689 8.67601L66.3045 9.42244C66.3727 9.44269 66.4408 9.4461 66.5057 9.4333Z" fill="#4F5D90"/>
<path d="M73.7001 11.6257C73.8461 11.5969 73.9698 11.4916 74.0136 11.3414C74.0806 11.1226 73.9561 10.8911 73.7372 10.8264L71.3016 10.08C71.082 10.0121 70.8505 10.1352 70.7868 10.3534C70.7197 10.5722 70.8443 10.8037 71.0632 10.8684L73.4988 11.6148C73.567 11.6351 73.6352 11.6385 73.7001 11.6257Z" fill="#4F5D90"/>
<path d="M64.4449 12.5069C64.4839 12.4992 64.5215 12.4851 64.5585 12.4677L66.8029 11.2802C67.004 11.1731 67.0814 10.9218 66.9732 10.7206C66.865 10.5194 66.6134 10.4442 66.4116 10.5481L64.1673 11.7356C63.9661 11.8426 63.8887 12.0939 63.997 12.2951C64.0843 12.46 64.2696 12.5415 64.4449 12.5069Z" fill="#4F5D90"/>
<path d="M71.086 8.99323C71.125 8.98555 71.1626 8.97139 71.1996 8.95398L73.444 7.7665C73.6451 7.65943 73.7225 7.40815 73.6143 7.20695C73.5061 7.00575 73.2545 6.93057 73.0527 7.0344L70.8084 8.22188C70.6072 8.32895 70.5298 8.58024 70.6381 8.78144C70.7254 8.94629 70.9107 9.02778 71.086 8.99323Z" fill="#4F5D90"/>
<path d="M67.4156 14.9461C67.5614 14.9173 67.6851 14.812 67.7289 14.662L68.4656 12.2374C68.5326 12.0188 68.4084 11.7875 68.1898 11.723C67.9705 11.6553 67.7393 11.7784 67.6755 11.9964L66.9388 14.421C66.8718 14.6396 66.996 14.8709 67.2146 14.9354C67.2827 14.9556 67.3508 14.9589 67.4156 14.9461Z" fill="#4F5D90"/>
<path d="M69.6178 7.78792C69.7636 7.75908 69.8872 7.65384 69.9311 7.50379L70.6677 5.07915C70.7348 4.86055 70.6105 4.62929 70.3919 4.5648C70.1727 4.49708 69.9414 4.62023 69.8776 4.83819L69.141 7.26284C69.0739 7.48144 69.1982 7.7127 69.4168 7.77718C69.4849 7.79738 69.553 7.80074 69.6178 7.78792Z" fill="#4F5D90"/>
<path d="M30.5334 93.9882C30.5334 93.9882 31.158 96.1272 33.4117 95.618C33.4117 95.618 31.5825 96.6595 32.4808 98.8353C32.4808 98.8353 30.8605 96.6405 29.5017 97.0403C29.5017 97.0403 31.0899 95.7737 30.5341 93.9914L30.5334 93.9882Z" fill="#4F5D90"/>
<path d="M14.0924 48.465C13.5801 48.5662 13.081 48.2336 12.9775 47.7222C12.8741 47.2107 13.2056 46.7141 13.7179 46.6129C14.2302 46.5117 14.7293 46.8443 14.8328 47.3557C14.9362 47.8672 14.6047 48.3638 14.0924 48.465Z" fill="#4F5D90"/>
<path d="M52.5638 9.10914L51.4953 10.0475C51.4953 10.0475 50.2579 8.08284 47.9015 8.15759L47.9631 6.69404C47.9631 6.69404 50.91 6.50269 52.5632 9.1059L52.5638 9.10914Z" fill="#8BC34A"/>
<path d="M19.8949 88.2895L19.4181 87.0836C19.4181 87.0836 21.4819 86.6425 22.1443 84.6121L23.3788 85.1262C23.3788 85.1262 22.6375 87.7009 19.8955 88.2928L19.8949 88.2895Z" fill="#FF5722"/>
<path d="M25.4115 64.0008L24.5935 62.9907C24.5935 62.9907 26.424 61.9523 26.4402 59.8143L27.7693 59.9323C27.7693 59.9323 27.8422 62.6116 25.4115 64.0008Z" fill="#FFCA28"/>
<path d="M34.3142 52.805L35.4276 52.1406C35.4276 52.1406 36.2116 54.1002 38.3305 54.4223L38.0331 55.7201C38.0331 55.7201 35.3628 55.4059 34.3175 52.8043L34.3142 52.805Z" fill="#19B5FE"/>
<path d="M30.6886 19.4148L30.1619 18.2288C30.1619 18.2288 32.2052 17.7042 32.7812 15.6471L34.0357 16.1101C34.0357 16.1101 33.4016 18.7141 30.6886 19.4148Z" fill="#FF5722"/>
</svg>
