<?xml version="1.0" encoding="UTF-8"?>
<svg width="33px" height="33px" viewBox="0 0 33 33" version="1.1" xmlns="http://www.w3.org/2000/svg" xmlns:xlink="http://www.w3.org/1999/xlink">
    <title>Vector (2)</title>
    <g id="Page-1" stroke="none" stroke-width="1" fill="none" fill-rule="evenodd">
        <g id="Vector-(2)" transform="translate(0.195312, 0.833513)" fill="#0B57D0" fill-rule="nonzero">
            <path d="M6.999948,5.999954 L14.999888,5.999954 L14.999888,7.999934 L6.999948,7.999934 L6.999948,5.999954 Z M6.999948,22.999804 L10.999888,22.999804 L10.999888,20.999804 L6.999948,20.999804 L6.999948,22.999804 Z M6.999948,12.999904 L15.999888,12.999904 L15.999888,11.999904 L15.999888,10.999904 L6.999948,10.999904 L6.999948,12.999904 Z M6.999948,17.999904 L11.999888,17.999904 L11.999888,15.999904 L6.999948,15.999904 L6.999948,17.999904 Z M15.999888,28.999804 L15.999888,29.999804 L15.999888,30.999804 L2.999978,30.999804 C1.345988,30.999804 -1.2490009e-15,29.653804 -1.2490009e-15,27.999804 L-1.2490009e-15,5.999954 C-1.2490009e-15,4.345964 1.345988,2.999974 2.999978,2.999974 L2.999978,1.999984 C2.999978,0.894994 3.895968,-1.99840144e-15 4.999958,-1.99840144e-15 L18.171888,-1.99840144e-15 C18.701888,-1.99840144e-15 19.210888,0.210994 19.585888,0.585994 L26.414788,7.413944 C26.788788,7.788934 26.999788,8.297934 26.999788,8.827934 L26.999788,11.999904 L24.999788,11.999904 L24.999788,9.999904 L19.999888,9.999904 C18.345888,9.999904 16.999888,8.653934 16.999888,6.999944 L16.999888,1.999984 L4.999958,1.999984 L4.999958,25.999804 L12.999888,25.999804 L12.999888,27.999804 L4.999958,27.999804 C3.895968,27.999804 2.999978,27.104804 2.999978,25.999804 L2.999978,4.999964 C2.447978,4.999964 1.999988,5.448954 1.999988,5.999954 L1.999988,27.999804 C1.999988,28.551804 2.447978,28.999804 2.999978,28.999804 L15.999888,28.999804 Z M18.999888,2.827974 L18.999888,6.999944 C18.999888,7.550944 19.447888,7.999934 19.999888,7.999934 L24.171788,7.999934 L18.999888,2.827974 Z M17.999888,20.999804 C17.999888,19.345804 19.345888,17.999904 20.999788,17.999904 C21.552788,17.999904 21.999788,17.551904 21.999788,16.999904 C21.999788,16.447904 21.552788,15.999904 20.999788,15.999904 C18.242888,15.999904 15.999888,18.242904 15.999888,20.999804 C15.999888,21.552804 16.446888,21.999804 16.999888,21.999804 C17.552888,21.999804 17.999888,21.552804 17.999888,20.999804 Z M31.706788,30.292804 C32.097788,30.683804 32.097788,31.315804 31.706788,31.706704 C31.511788,31.901704 31.255788,31.999704 30.999788,31.999704 C30.743788,31.999704 30.487788,31.901704 30.292788,31.706704 L25.896788,27.311804 C24.541788,28.365804 22.845788,28.999804 20.999788,28.999804 C16.588888,28.999804 12.999888,25.410804 12.999888,20.999804 C12.999888,16.588904 16.588888,12.999904 20.999788,12.999904 C25.410788,12.999904 28.999788,16.588904 28.999788,20.999804 C28.999788,22.845804 28.365788,24.541804 27.311788,25.897804 L31.706788,30.292804 Z M26.999788,20.999804 C26.999788,17.691904 24.307788,14.999904 20.999788,14.999904 C17.691888,14.999904 14.999888,17.691904 14.999888,20.999804 C14.999888,24.307804 17.691888,26.999804 20.999788,26.999804 C24.307788,26.999804 26.999788,24.307804 26.999788,20.999804 Z" id="Shape"></path>
        </g>
    </g>
</svg>