<?xml version="1.0" encoding="UTF-8"?>
<svg width="32px" height="32px" viewBox="0 0 32 32" version="1.1" xmlns="http://www.w3.org/2000/svg" xmlns:xlink="http://www.w3.org/1999/xlink">
    <title>Vector (1)</title>
    <g id="Page-1" stroke="none" stroke-width="1" fill="none" fill-rule="evenodd">
        <g id="Vector-(1)" transform="translate(0.000000, 0.000017)" fill="#0B57D0" fill-rule="nonzero">
            <path d="M24.5,15.1149 L24.5,0 L0,0 L0,30.0625 L18.2058,30.0625 C19.6638,31.2725 21.5304,32 23.5625,32 C28.2149,32 32,28.1869 32,23.5 C32,19.1644 28.7129,15.5828 24.5,15.1149 Z M16.5276,28.1875 L1.875,28.1875 L1.875,1.875 L22.625,1.875 L22.625,15.1149 C20.9851,15.297 19.4858,15.9509 18.2658,16.9375 L15.125,16.9375 L15.125,18.8125 L16.5504,18.8125 C15.6506,20.1541 15.125,21.7668 15.125,23.5 C15.125,25.2312 15.6419,26.8429 16.5276,28.1875 Z M23.5625,26.3125 C23.0456,26.3125 22.625,25.8919 22.625,25.375 L20.75,25.375 C20.75,26.5972 21.5338,27.6393 22.625,28.0263 L22.625,30.0571 C19.449,29.5964 17,26.8317 17,23.5 C17,20.1997 19.449,17.4611 22.625,17.0047 L22.625,18.9737 C21.5338,19.3607 20.75,20.4028 20.75,21.625 C20.75,23.1758 22.0117,24.4375 23.5625,24.4375 C24.0794,24.4375 24.5,24.8581 24.5,25.375 C24.5,25.8919 24.0794,26.3125 23.5625,26.3125 Z M24.5,30.0571 L24.5,28.0263 C25.5912,27.6393 26.375,26.5972 26.375,25.375 C26.375,23.8242 25.1133,22.5625 23.5625,22.5625 C23.0456,22.5625 22.625,22.1419 22.625,21.625 C22.625,21.1081 23.0456,20.6875 23.5625,20.6875 C24.0794,20.6875 24.5,21.1081 24.5,21.625 L26.375,21.625 C26.375,20.4028 25.5912,19.3607 24.5,18.9737 L24.5,17.0047 C27.676,17.4611 30.125,20.1997 30.125,23.5 C30.125,26.8317 27.676,29.5964 24.5,30.0571 Z" id="Shape"></path>
        </g>
    </g>
</svg>