<?xml version="1.0" encoding="UTF-8"?>
<svg width="32px" height="32px" viewBox="0 0 32 32" version="1.1" xmlns="http://www.w3.org/2000/svg" xmlns:xlink="http://www.w3.org/1999/xlink">
    <title>Group</title>
    <g id="Page-1" stroke="none" stroke-width="1" fill="none" fill-rule="evenodd">
        <g id="Group" fill="#0B57D0" fill-rule="nonzero">
            <path d="M30.8626,5.00003663 L15.9242,5.00003663 L15.9242,4.68753663 C15.9242,3.43596663 15.3329,2.25890663 14.2584,1.37246663 C13.1788,0.483470627 11.742,-0.00327907324 10.2184,1.66267565e-05 C7.0927,0.00828342676 4.54976,2.13615663 4.54976,4.74340663 L4.54976,5.00003663 L1.13744,5.00003663 C0.50927,5.00003663 0,5.41978663 0,5.93753663 L0,31.0625166 C0,31.5803166 0.50927,32.0000166 1.13744,32.0000166 L30.8626,32.0000166 C31.4907,32.0000166 32,31.5803166 32,31.0625166 L32,5.93753663 C32,5.41978663 31.4907,5.00003663 30.8626,5.00003663 Z M6.82465,4.74340663 C6.82465,3.16671663 8.35033,1.88003663 10.2257,1.87503216 C11.1415,1.87371663 12.0025,2.16528663 12.6498,2.69828663 C13.2943,3.23003663 13.6493,3.93653663 13.6493,4.68753663 L13.6493,5.00003663 L11.3744,5.00003663 L11.3744,4.68753663 C11.3744,4.16978663 10.8651,3.75003663 10.237,3.75003663 C9.6088,3.75003663 9.09953,4.16978663 9.09953,4.68753663 L9.09953,5.00003663 L6.82465,5.00003663 L6.82465,4.74340663 Z M6.82465,6.87503663 L9.09953,6.87503663 L9.09953,8.43753663 C9.09953,8.95446663 8.58927,9.37503663 7.96209,9.37503663 C7.3349,9.37503663 6.82465,8.95446663 6.82465,8.43753663 L6.82465,6.87503663 Z M29.7251,30.1250166 L2.27488,30.1250166 L2.27488,6.87503663 L4.54976,6.87503663 L4.54976,8.43753663 C4.54976,9.98834663 6.08053,11.2500166 7.96209,11.2500166 C9.84364,11.2500166 11.3744,9.98834663 11.3744,8.43753663 L11.3744,6.87503663 L29.7251,6.87503663 L29.7251,30.1250166 Z" id="Shape"></path>
            <path d="M13.7251,20.6875166 L5.68718,20.6875166 C5.05901,20.6875166 4.54974,21.1072166 4.54974,21.6250166 L4.54974,27.3125166 C4.54974,27.8302166 5.05901,28.2500166 5.68718,28.2500166 L13.7251,28.2500166 C14.3533,28.2500166 14.8625,27.8302166 14.8625,27.3125166 L14.8625,21.6250166 C14.8625,21.1072166 14.3533,20.6875166 13.7251,20.6875166 Z M12.5877,26.3750166 L6.82463,26.3750166 L6.82463,22.5625166 L12.5877,22.5625166 L12.5877,26.3750166 Z" id="Shape"></path>
            <path d="M5.68718,13.1250166 C5.05901,13.1250166 4.54974,13.5447166 4.54974,14.0625166 L4.54974,17.8125166 C4.54974,18.3302166 5.05901,18.7500166 5.68718,18.7500166 L13.7251,18.7500166 C14.3533,18.7500166 14.8625,18.3302166 14.8625,17.8125166 L14.8625,14.0625166 C14.8625,13.5447166 14.3533,13.1250166 13.7251,13.1250166 L5.68718,13.1250166 Z M12.5877,16.8750166 L6.82463,16.8750166 L6.82463,15.0000166 L12.5877,15.0000166 L12.5877,16.8750166 Z" id="Shape"></path>
            <path d="M18.2749,28.2500166 L26.3128,28.2500166 C26.941,28.2500166 27.4502,27.8302166 27.4502,27.3125166 L27.4502,14.0625166 C27.4502,13.5447166 26.941,13.1250166 26.3128,13.1250166 L18.2749,13.1250166 C17.6467,13.1250166 17.1375,13.5447166 17.1375,14.0625166 L17.1375,27.3125166 C17.1375,27.8302166 17.6467,28.2500166 18.2749,28.2500166 Z M19.4123,15.0000166 L25.1754,15.0000166 L25.1754,26.3750166 L19.4123,26.3750166 L19.4123,15.0000166 Z" id="Shape"></path>
            <path d="M18.2749,11.2500166 L26.3128,11.2500166 C26.941,11.2500166 27.4502,10.8303166 27.4502,10.3125166 C27.4502,9.79476663 26.941,9.37501663 26.3128,9.37501663 L18.2749,9.37501663 C17.6467,9.37501663 17.1375,9.79476663 17.1375,10.3125166 C17.1375,10.8303166 17.6467,11.2500166 18.2749,11.2500166 Z" id="Path"></path>
        </g>
    </g>
</svg>