<?xml version="1.0" encoding="UTF-8"?>
<svg width="34px" height="34px" viewBox="0 0 34 34" version="1.1" xmlns="http://www.w3.org/2000/svg" xmlns:xlink="http://www.w3.org/1999/xlink">
    <title>Vector</title>
    <g id="Page-1" stroke="none" stroke-width="1" fill="none" fill-rule="evenodd">
        <g id="Vector" transform="translate(1.000000, 1.000016)" fill="#0B57D0" fill-rule="nonzero" stroke="#0B57D0" stroke-width="0.1">
            <path d="M10.1460003,10.7031007 C10.1460003,10.2985007 10.1460003,10.0030007 10.1460003,9.70570075 C10.1460003,6.89870075 10.1431002,4.09167075 10.1489002,1.28463075 C10.1504002,0.28566075 10.3931002,0.00660075 11.2697002,0.00495075 C14.4198002,-0.00165025 17.5685002,-0.00165025 20.7187002,0.00495075 C21.6156002,0.00495075 21.8525002,0.29226075 21.8525002,1.35728075 C21.8554002,6.53048075 21.8671003,11.7053007 21.8395003,16.8785008 C21.8351002,17.6100007 22.0124002,17.8082007 22.6521003,17.7983008 C25.3646002,17.7586007 28.0787003,17.7784008 30.7927002,17.7817007 C31.8234002,17.7817007 31.9964003,17.9733007 31.9978002,19.1044007 C32.0007003,22.9566007 32.0007003,26.8105008 31.9978002,30.6627007 C31.9978002,31.7244008 31.7681002,31.9969007 30.8509002,31.9969007 C20.9411002,32.0002007 11.0328002,32.0002007 1.12297025,31.9969007 C0.24204025,31.9969007 0.00218025,31.7195007 0.00218025,30.7222007 C-0.00072675,24.4476007 -0.00072675,18.1731008 0.00218025,11.8985007 C0.00218025,10.9045007 0.18680025,10.7047007 1.08372025,10.7031007 C3.79776025,10.6981007 6.51033025,10.7014007 9.22440025,10.7014007 C9.48890025,10.7014007 9.75500025,10.7014007 10.1460003,10.7014007 L10.1460003,10.7031007 Z M20.2317003,30.1674008 L20.2317003,1.86090075 L11.7887003,1.86090075 L11.7887003,30.1690008 L20.2317003,30.1690008 L20.2317003,30.1674008 Z M1.58670025,30.1492007 L10.0733002,30.1492007 L10.0733002,12.5062007 L1.58670025,12.5062007 L1.58670025,30.1492007 Z M30.4148003,30.1690007 L30.4148003,19.6393007 L21.9325003,19.6393007 L21.9325003,30.1690007 L30.4148003,30.1690007 Z" id="Shape"></path>
        </g>
    </g>
</svg>