<svg width="24" height="17" viewBox="0 0 24 17" fill="none" xmlns="http://www.w3.org/2000/svg">
<path d="M22 5.70508V3.70508H20V5.70508H18V7.70508H20V9.70508H22V7.70508H24V5.70508H22Z" fill="#939396"/>
<path d="M8 8.70508C10.21 8.70508 12 6.91508 12 4.70508C12 2.49508 10.21 0.705078 8 0.705078C5.79 0.705078 4 2.49508 4 4.70508C4 6.91508 5.79 8.70508 8 8.70508ZM8 2.70508C9.1 2.70508 10 3.60508 10 4.70508C10 5.80508 9.1 6.70508 8 6.70508C6.9 6.70508 6 5.80508 6 4.70508C6 3.60508 6.9 2.70508 8 2.70508Z" fill="#939396"/>
<path d="M8 9.70508C5.33 9.70508 0 11.0451 0 13.7051V16.7051H16V13.7051C16 11.0451 10.67 9.70508 8 9.70508ZM14 14.7051H2V13.7151C2.2 12.9951 5.3 11.7051 8 11.7051C10.7 11.7051 13.8 12.9951 14 13.7051V14.7051Z" fill="#939396"/>
<path d="M12.51 0.755078C13.43 1.81508 14 3.19508 14 4.70508C14 6.21508 13.43 7.59508 12.51 8.65508C14.47 8.40508 16 6.74508 16 4.70508C16 2.66508 14.47 1.00508 12.51 0.755078Z" fill="#939396"/>
<path d="M16.53 10.5351C17.42 11.3651 18 12.4051 18 13.7051V16.7051H20V13.7051C20 12.2551 18.41 11.1951 16.53 10.5351Z" fill="#939396"/>
</svg>
