<svg width="22" height="27" viewBox="0 0 22 27" fill="none" xmlns="http://www.w3.org/2000/svg">
<path d="M11.0002 26.0469C12.4668 26.0469 13.6668 24.8469 13.6668 23.3802H8.3335C8.3335 24.8469 9.5335 26.0469 11.0002 26.0469ZM19.0002 18.0469V11.3802C19.0002 7.28688 16.8268 3.86021 13.0002 2.95354V2.04688C13.0002 0.940208 12.1068 0.046875 11.0002 0.046875C9.8935 0.046875 9.00016 0.940208 9.00016 2.04688V2.95354C5.18683 3.86021 3.00016 7.27354 3.00016 11.3802V18.0469L0.333496 20.7135V22.0469H21.6668V20.7135L19.0002 18.0469ZM16.3335 19.3802H5.66683V11.3802C5.66683 8.07354 7.68016 5.38021 11.0002 5.38021C14.3202 5.38021 16.3335 8.07354 16.3335 11.3802V19.3802Z" fill="#939396"/>
</svg>
