<?xml version="1.0" encoding="UTF-8"?>
<svg width="34px" height="34px" viewBox="0 0 34 34" version="1.1" xmlns="http://www.w3.org/2000/svg" xmlns:xlink="http://www.w3.org/1999/xlink">
    <title>clients</title>
    <g id="Page-1" stroke="none" stroke-width="1" fill="none" fill-rule="evenodd">
        <g id="clients" transform="translate(0.850000, 0.896875)" fill="#939396">
            <path d="M2.10168,22.161525 C2.10168,23.266125 2.99406,24.156825 4.09863,24.156825 L16.2679,24.156825 L16.2679,25.977525 L2.15,25.977525 C1.04543,25.977525 0.15,25.082125 0.15,23.977525 L0.15,2.150005 C0.15,1.045435 1.04543,0.150005 2.15,0.150005 L23.7785,0.150005 C24.8831,0.150005 25.7785,1.045435 25.7785,2.150005 L25.7785,8.597275 C25.6974,8.590425 25.6175,8.580315 25.5379,8.570235 C25.3986,8.552605 25.2598,8.535055 25.1161,8.535055 C24.675,8.535055 24.2448,8.584205 23.8253,8.656545 L23.8253,3.969785 C23.8253,2.865215 22.9346,1.970785 21.8301,1.970785 L4.09693,1.970785 C2.99237,1.970785 2.10168,2.861485 2.10168,3.966055 L2.10168,22.161525 Z M18.1142,14.017625 L4.87663,14.017625 L4.87663,12.110125 L18.8385,12.110125 C18.5012,12.703025 18.2442,13.336425 18.1142,14.017625 Z M21.0472,6.145865 L4.87663,6.145865 L4.87663,8.053395 L21.0472,8.053395 L21.0472,6.145865 Z M18.6002,19.983025 L4.87663,19.983025 L4.87663,18.075525 L18.775,18.075525 C19.0536,18.583225 19.3802,19.069025 19.778,19.501525 C19.3586,19.605625 18.967,19.774825 18.6002,19.983025 Z M30.439,15.203525 C30.439,17.948425 28.0649,20.174125 25.118,20.174125 C22.1836,20.174125 19.8079,17.948425 19.8079,15.203525 C19.8079,12.455725 22.1836,10.231525 25.118,10.231525 C28.0648,10.231525 30.439,12.455725 30.439,15.203525 Z M25.1446,18.386025 C27.0071,18.386025 28.5169,16.975325 28.5169,15.235025 C28.5169,13.494725 27.0071,12.083925 25.1446,12.083925 C23.2822,12.083925 21.7724,13.494725 21.7724,15.235025 C21.7724,16.975325 23.2822,18.386025 25.1446,18.386025 Z M29.3874,20.981025 L20.8595,20.981025 C19.3365,20.981025 18.0891,22.285525 18.0891,23.892225 L18.0891,31.892525 C18.0891,31.939425 18.1013,31.983425 18.1137,32.028025 C18.1246,32.067425 18.1357,32.107325 18.1386,32.150025 L20.2648,32.150025 L20.2648,23.079025 L30.0228,23.079025 L30.0228,32.150025 L32.1005,32.150025 C32.1034,32.108225 32.1143,32.068625 32.1252,32.029325 C32.1376,31.984225 32.1500231,31.939625 32.1500231,31.892525 L32.1500231,23.892225 C32.1562,22.289725 30.9119,20.981025 29.3874,20.981025 Z" id="Shape"></path>
            <path d="M16.2679,24.156825 L16.4179,24.156825 L16.4179,24.006825 L16.2679,24.006825 L16.2679,24.156825 Z M16.2679,25.977525 L16.2679,26.127525 L16.4179,26.127525 L16.4179,25.977525 L16.2679,25.977525 Z M25.7785,8.597275 L25.7659,8.746745 L25.9285,8.760495 L25.9285,8.597275 L25.7785,8.597275 Z M25.5379,8.570235 L25.519,8.719045 L25.5379,8.570235 Z M23.8253,8.656545 L23.6753,8.656545 L23.6753,8.834625 L23.8508,8.804355 L23.8253,8.656545 Z M4.87663,14.017625 L4.72663,14.017625 L4.72663,14.167625 L4.87663,14.167625 L4.87663,14.017625 Z M18.1142,14.017625 L18.1142,14.167625 L18.2383,14.167625 L18.2616,14.045725 L18.1142,14.017625 Z M4.87663,12.110125 L4.87663,11.960125 L4.72663,11.960125 L4.72663,12.110125 L4.87663,12.110125 Z M18.8385,12.110125 L18.9689,12.184225 L19.0965,11.960125 L18.8385,11.960125 L18.8385,12.110125 Z M4.87663,6.145865 L4.87663,5.995865 L4.72663,5.995865 L4.72663,6.145865 L4.87663,6.145865 Z M21.0472,6.145865 L21.1972,6.145865 L21.1972,5.995865 L21.0472,5.995865 L21.0472,6.145865 Z M4.87663,8.053395 L4.72663,8.053395 L4.72663,8.203395 L4.87663,8.203395 L4.87663,8.053395 Z M21.0472,8.053395 L21.0472,8.203395 L21.1972,8.203395 L21.1972,8.053395 L21.0472,8.053395 Z M4.87663,19.983025 L4.72663,19.983025 L4.72663,20.133025 L4.87663,20.133025 L4.87663,19.983025 Z M18.6002,19.983025 L18.6002,20.133025 L18.6398,20.133025 L18.6742,20.113525 L18.6002,19.983025 Z M4.87663,18.075525 L4.87663,17.925525 L4.72663,17.925525 L4.72663,18.075525 L4.87663,18.075525 Z M18.775,18.075525 L18.9065,18.003325 L18.8638,17.925525 L18.775,17.925525 L18.775,18.075525 Z M19.778,19.501525 L19.8141,19.647125 L20.0596,19.586125 L19.8884,19.399925 L19.778,19.501525 Z M18.1137,32.028025 L18.2582,31.987925 L18.2582,31.987925 L18.1137,32.028025 Z M18.1386,32.150025 L17.989,32.160225 L17.9985,32.300025 L18.1386,32.300025 L18.1386,32.150025 Z M20.2648,32.150025 L20.2648,32.300025 L20.4148,32.300025 L20.4148,32.150025 L20.2648,32.150025 Z M20.2648,23.079025 L20.2648,22.929025 L20.1148,22.929025 L20.1148,23.079025 L20.2648,23.079025 Z M30.0228,23.079025 L30.1728,23.079025 L30.1728,22.929025 L30.0228,22.929025 L30.0228,23.079025 Z M30.0228,32.150025 L29.8728,32.150025 L29.8728,32.300025 L30.0228,32.300025 L30.0228,32.150025 Z M32.1005,32.150025 L32.1005,32.300025 L32.2405,32.300025 L32.2502,32.160325 L32.1005,32.150025 Z M32.1252,32.029325 L31.9806,31.989225 L31.9806,31.989325 L32.1252,32.029325 Z M32.15,23.892225 L32,23.891625 L32,23.892225 L32.15,23.892225 Z M4.09863,24.006825 C3.07673,24.006825 2.25168,23.183125 2.25168,22.161525 L1.95168,22.161525 C1.95168,23.349125 2.91138,24.306825 4.09863,24.306825 L4.09863,24.006825 Z M16.2679,24.006825 L4.09863,24.006825 L4.09863,24.306825 L16.2679,24.306825 L16.2679,24.006825 Z M16.4179,25.977525 L16.4179,24.156825 L16.1179,24.156825 L16.1179,25.977525 L16.4179,25.977525 Z M2.15,26.127525 L16.2679,26.127525 L16.2679,25.827525 L2.15,25.827525 L2.15,26.127525 Z M0,23.977525 C0,25.164925 0.96259,26.127525 2.15,26.127525 L2.15,25.827525 C1.12827,25.827525 0.3,24.999325 0.3,23.977525 L0,23.977525 Z M-5.55111512e-17,2.150005 L-5.55111512e-17,23.977525 L0.3,23.977525 L0.3,2.150005 L-5.55111512e-17,2.150005 Z M2.15,0 C0.96259,0 0,0.962585 0,2.150005 L0.3,2.150005 C0.3,1.128275 1.12827,0.300005 2.15,0.300005 L2.15,0 Z M23.7785,5.55111512e-17 L2.15,5.55111512e-17 L2.15,0.300005 L23.7785,0.300005 L23.7785,5.55111512e-17 Z M25.9285,2.149995 C25.9285,0.962585 24.9659,0 23.7785,0 L23.7785,0.300005 C24.8002,0.300005 25.6285,1.128275 25.6285,2.149995 L25.9285,2.149995 Z M25.9285,8.597275 L25.9285,2.149995 L25.6285,2.149995 L25.6285,8.597275 L25.9285,8.597275 Z M25.519,8.719045 C25.5982,8.729065 25.6812,8.739585 25.7659,8.746745 L25.7912,8.447805 C25.7137,8.441255 25.6369,8.431565 25.5567,8.421415 L25.519,8.719045 Z M25.1161,8.685055 C25.2489,8.685055 25.3783,8.701245 25.519,8.719045 L25.5567,8.421415 C25.4188,8.403975 25.2708,8.385055 25.1161,8.385055 L25.1161,8.685055 Z M23.8508,8.804355 C24.2647,8.732975 24.686,8.685055 25.1161,8.685055 L25.1161,8.385055 C24.664,8.385055 24.2248,8.435425 23.7998,8.508725 L23.8508,8.804355 Z M23.6753,3.969785 L23.6753,8.656545 L23.9753,8.656545 L23.9753,3.969785 L23.6753,3.969785 Z M21.8301,2.120785 C22.8514,2.120785 23.6753,2.947685 23.6753,3.969785 L23.9753,3.969785 C23.9753,2.782735 23.0179,1.820785 21.8301,1.820785 L21.8301,2.120785 Z M4.09693,2.120785 L21.8301,2.120785 L21.8301,1.820785 L4.09693,1.820785 L4.09693,2.120785 Z M2.25168,3.966055 C2.25168,2.944325 3.07521,2.120785 4.09693,2.120785 L4.09693,1.820785 C2.90952,1.820785 1.95168,2.778645 1.95168,3.966055 L2.25168,3.966055 Z M2.25168,22.161525 L2.25168,3.966055 L1.95168,3.966055 L1.95168,22.161525 L2.25168,22.161525 Z M4.87663,14.167625 L18.1142,14.167625 L18.1142,13.867625 L4.87663,13.867625 L4.87663,14.167625 Z M4.72663,12.110125 L4.72663,14.017625 L5.02663,14.017625 L5.02663,12.110125 L4.72663,12.110125 Z M18.8385,11.960125 L4.87663,11.960125 L4.87663,12.260125 L18.8385,12.260125 L18.8385,11.960125 Z M18.2616,14.045725 C18.3879,13.383725 18.6381,12.765725 18.9689,12.184225 L18.7082,12.035925 C18.3643,12.640325 18.1005,13.289225 17.9669,13.989525 L18.2616,14.045725 Z M4.87663,6.295865 L21.0472,6.295865 L21.0472,5.995865 L4.87663,5.995865 L4.87663,6.295865 Z M5.02663,8.053395 L5.02663,6.145865 L4.72663,6.145865 L4.72663,8.053395 L5.02663,8.053395 Z M21.0472,7.903395 L4.87663,7.903395 L4.87663,8.203395 L21.0472,8.203395 L21.0472,7.903395 Z M20.8972,6.145865 L20.8972,8.053395 L21.1972,8.053395 L21.1972,6.145865 L20.8972,6.145865 Z M4.87663,20.133025 L18.6002,20.133025 L18.6002,19.833025 L4.87663,19.833025 L4.87663,20.133025 Z M4.72663,18.075525 L4.72663,19.983025 L5.02663,19.983025 L5.02663,18.075525 L4.72663,18.075525 Z M18.775,17.925525 L4.87663,17.925525 L4.87663,18.225525 L18.775,18.225525 L18.775,17.925525 Z M19.8884,19.399925 C19.5007,18.978525 19.1809,18.503225 18.9065,18.003325 L18.6435,18.147725 C18.9264,18.663125 19.2596,19.159625 19.6676,19.603025 L19.8884,19.399925 Z M18.6742,20.113525 C19.0316,19.910625 19.4105,19.747325 19.8141,19.647125 L19.7418,19.355925 C19.3067,19.463925 18.9024,19.639025 18.5261,19.852625 L18.6742,20.113525 Z M25.118,20.324125 C28.1381,20.324125 30.589,18.040625 30.589,15.203525 L30.289,15.203525 C30.289,17.856225 27.9917,20.024125 25.118,20.024125 L25.118,20.324125 Z M19.6579,15.203525 C19.6579,18.040425 22.1102,20.324125 25.118,20.324125 L25.118,20.024125 C22.257,20.024125 19.9578,17.856425 19.9578,15.203525 L19.6579,15.203525 Z M25.118,10.081525 C22.1102,10.081525 19.6579,12.363825 19.6579,15.203525 L19.9578,15.203525 C19.9578,12.547725 22.257,10.381525 25.118,10.381525 L25.118,10.081525 Z M30.589,15.203525 C30.589,12.363625 28.138,10.081525 25.118,10.081525 L25.118,10.381525 C27.9916,10.381525 30.289,12.547925 30.289,15.203525 L30.589,15.203525 Z M28.3669,15.235025 C28.3669,16.883025 26.934,18.236025 25.1446,18.236025 L25.1446,18.536025 C27.0802,18.536025 28.6669,17.067525 28.6669,15.235025 L28.3669,15.235025 Z M25.1446,12.233925 C26.934,12.233925 28.3669,13.587025 28.3669,15.235025 L28.6669,15.235025 C28.6669,13.402425 27.0802,11.933925 25.1446,11.933925 L25.1446,12.233925 Z M21.9224,15.235025 C21.9224,13.587025 23.3553,12.233925 25.1446,12.233925 L25.1446,11.933925 C23.2091,11.933925 21.6224,13.402425 21.6224,15.235025 L21.9224,15.235025 Z M25.1446,18.236025 C23.3553,18.236025 21.9224,16.883025 21.9224,15.235025 L21.6224,15.235025 C21.6224,17.067525 23.2091,18.536025 25.1446,18.536025 L25.1446,18.236025 Z M20.8595,21.131025 L29.3874,21.131025 L29.3874,20.831025 L20.8595,20.831025 L20.8595,21.131025 Z M18.2391,23.892225 C18.2391,22.361425 19.4261,21.131025 20.8595,21.131025 L20.8595,20.831025 C19.247,20.831025 17.9391,22.209525 17.9391,23.892225 L18.2391,23.892225 Z M18.2391,31.892525 L18.2391,23.892225 L17.9391,23.892225 L17.9391,31.892525 L18.2391,31.892525 Z M18.2582,31.987925 C18.245,31.940125 18.2391,31.915625 18.2391,31.892525 L17.9391,31.892525 C17.9391,31.963225 17.9576,32.026725 17.9692,32.068225 L18.2582,31.987925 Z M18.2883,32.139725 C18.2841,32.079425 18.2686,32.025225 18.2582,31.987925 L17.9692,32.068225 C17.9807,32.109625 17.9872,32.135125 17.989,32.160225 L18.2883,32.139725 Z M20.2648,32.000025 L18.1386,32.000025 L18.1386,32.300025 L20.2648,32.300025 L20.2648,32.000025 Z M20.1148,23.079025 L20.1148,32.150025 L20.4148,32.150025 L20.4148,23.079025 L20.1148,23.079025 Z M30.0228,22.929025 L20.2648,22.929025 L20.2648,23.229025 L30.0228,23.229025 L30.0228,22.929025 Z M30.1728,32.150025 L30.1728,23.079025 L29.8728,23.079025 L29.8728,32.150025 L30.1728,32.150025 Z M32.1005,32.000025 L30.0228,32.000025 L30.0228,32.300025 L32.1005,32.300025 L32.1005,32.000025 Z M31.9806,31.989325 C31.9703,32.026425 31.9549,32.080425 31.9509,32.139725 L32.2502,32.160325 C32.2518,32.136025 32.2583,32.110725 32.2698,32.069225 L31.9806,31.989325 Z M32,31.892525 C32,31.915925 31.994,31.941125 31.9806,31.989225 L32.2697,32.069325 C32.2813,32.027425 32.3,31.963325 32.3,31.892525 L32,31.892525 Z M32,23.892225 L32,31.892525 L32.3,31.892525 L32.3,23.892225 L32,23.892225 Z M29.3874,21.131025 C30.8221,21.131025 32.0059,22.365425 32,23.891625 L32.3000242,23.892725 C32.3065,22.214125 31.0016,20.831025 29.3874,20.831025 L29.3874,21.131025 Z" id="Shape" fill-rule="nonzero"></path>
        </g>
    </g>
</svg>