<svg width="33" height="32" viewBox="0 0 33 32" fill="none" xmlns="http://www.w3.org/2000/svg">
<circle cx="16.1958" cy="16" r="15" stroke="#EEF9E8" stroke-width="2"/>
<path d="M27.1958 16L24.7558 13.21L25.0958 9.52L21.4858 8.7L19.5958 5.5L16.1958 6.96L12.7958 5.5L10.9058 8.69L7.2958 9.5L7.6358 13.2L5.1958 16L7.6358 18.79L7.2958 22.49L10.9058 23.31L12.7958 26.5L16.1958 25.03L19.5958 26.49L21.4858 23.3L25.0958 22.48L24.7558 18.79L27.1958 16ZM13.5758 20.01L11.1958 17.61C10.8058 17.22 10.8058 16.59 11.1958 16.2L11.2658 16.13C11.6558 15.74 12.2958 15.74 12.6858 16.13L14.2958 17.75L19.4458 12.59C19.8358 12.2 20.4758 12.2 20.8658 12.59L20.9358 12.66C21.3258 13.05 21.3258 13.68 20.9358 14.07L15.0158 20.01C14.6058 20.4 13.9758 20.4 13.5758 20.01Z" fill="#EEF9E8"/>
</svg>
