<svg width="20" height="20" viewBox="0 0 20 20" fill="none" xmlns="http://www.w3.org/2000/svg">
<path d="M7.89195 6.50523V13.5052C7.89195 13.9152 8.36195 14.1552 8.69195 13.9052L13.3619 10.4052C13.6319 10.2052 13.6319 9.80523 13.3619 9.60523L8.69195 6.10523C8.36195 5.85523 7.89195 6.09523 7.89195 6.50523ZM8.89195 1.23523C8.89195 0.595229 8.30195 0.105229 7.68195 0.245229C6.56195 0.505229 5.50195 0.945229 4.56195 1.54523C4.03195 1.88523 3.95195 2.64523 4.40195 3.09523C4.72195 3.41523 5.23195 3.49523 5.61195 3.25523C6.38195 2.76523 7.23195 2.40523 8.15195 2.20523C8.59195 2.10523 8.89195 1.69523 8.89195 1.23523ZM2.99195 4.51523C2.53195 4.06523 1.78195 4.13523 1.44195 4.67523C0.841948 5.61523 0.401948 6.67523 0.141948 7.79523C0.00194766 8.41523 0.481948 9.00523 1.12195 9.00523C1.57195 9.00523 1.99195 8.70523 2.08195 8.26523C2.28195 7.35523 2.65195 6.49523 3.13195 5.73523C3.39195 5.34523 3.31195 4.83523 2.99195 4.51523ZM1.12195 11.0052C0.481948 11.0052 -0.00805233 11.5952 0.131948 12.2152C0.391948 13.3352 0.831948 14.3852 1.43195 15.3352C1.77195 15.8752 2.53195 15.9452 2.98195 15.4952C3.30195 15.1752 3.38195 14.6652 3.13195 14.2852C2.64195 13.5252 2.28195 12.6752 2.08195 11.7552C1.99195 11.3052 1.58195 11.0052 1.12195 11.0052ZM4.56195 18.4552C5.51195 19.0552 6.56195 19.4952 7.68195 19.7552C8.30195 19.8952 8.89195 19.4052 8.89195 18.7752C8.89195 18.3252 8.59195 17.9052 8.15195 17.8152C7.24195 17.6152 6.38195 17.2452 5.62195 16.7652C5.23195 16.5252 4.73195 16.5952 4.41195 16.9252C3.95195 17.3652 4.02195 18.1152 4.56195 18.4552ZM19.8919 10.0052C19.8919 14.7352 16.5919 18.7152 12.1619 19.7452C11.5419 19.8952 10.9419 19.4052 10.9419 18.7652C10.9419 18.3052 11.2519 17.9052 11.6919 17.7952C15.2419 16.9752 17.8919 13.7952 17.8919 10.0052C17.8919 6.21523 15.2419 3.03523 11.6919 2.21523C11.2519 2.11523 10.9419 1.70523 10.9419 1.24523C10.9419 0.605229 11.5419 0.115229 12.1619 0.265229C16.5919 1.29523 19.8919 5.27523 19.8919 10.0052Z" fill="#ECF3FE"/>
</svg>
