<?xml version="1.0" encoding="UTF-8"?>
<svg width="24px" height="24px" viewBox="0 0 24 24" version="1.1" xmlns="http://www.w3.org/2000/svg" xmlns:xlink="http://www.w3.org/1999/xlink">
    <title>dasboard</title>
    <g id="Page-1" stroke="none" stroke-width="1" fill="none" fill-rule="evenodd">
        <g id="dasboard" fill="#939396" fill-rule="nonzero">
            <path d="M2.66667,10.666625 L8,10.666625 C9.46667,10.666625 10.6667,9.466665 10.6667,8 L10.6667,2.666665 C10.6667,1.200005 9.46667,0 8,0 L2.66667,0 C1.2,0 0,1.200005 0,2.666665 L0,8 C0,9.466665 1.2,10.666625 2.66667,10.666625 Z" id="Path"></path>
            <path d="M2.66667,24.000025 L8,24.000025 C9.46667,24.000025 10.6667,22.800025 10.6667,21.333325 L10.6667,16.000025 C10.6667,14.533325 9.46667,13.333325 8,13.333325 L2.66667,13.333325 C1.2,13.333325 0,14.533325 0,16.000025 L0,21.333325 C0,22.800025 1.2,24.000025 2.66667,24.000025 Z" id="Path"></path>
            <path d="M13.3333,2.666665 L13.3333,8 C13.3333,9.466665 14.5333,10.666625 16,10.666625 L21.3333,10.666625 C22.8,10.666625 24,9.466665 24,8 L24,2.666665 C24,1.200005 22.8,0 21.3333,0 L16,0 C14.5333,0 13.3333,1.200005 13.3333,2.666665 Z" id="Path"></path>
            <path d="M16,24.000025 L21.3333,24.000025 C22.8,24.000025 24,22.800025 24,21.333325 L24,16.000025 C24,14.533325 22.8,13.333325 21.3333,13.333325 L16,13.333325 C14.5333,13.333325 13.3333,14.533325 13.3333,16.000025 L13.3333,21.333325 C13.3333,22.800025 14.5333,24.000025 16,24.000025 Z" id="Path"></path>
        </g>
    </g>
</svg>