<svg width="33" height="33" viewBox="0 0 33 33" fill="none" xmlns="http://www.w3.org/2000/svg">
<circle cx="16.1958" cy="16.5" r="15" stroke="#FEE9EA" stroke-width="2"/>
<path d="M21.1958 8H18.0158C17.5958 6.84 16.4958 6 15.1958 6C13.8958 6 12.7958 6.84 12.3758 8H9.1958C8.0958 8 7.1958 8.9 7.1958 10V25C7.1958 26.1 8.0958 27 9.1958 27H15.3058C14.7158 26.43 14.2358 25.75 13.8858 25H9.1958V10H11.1958V11C11.1958 12.1 12.0958 13 13.1958 13H17.1958C18.2958 13 19.1958 12.1 19.1958 11V10H21.1958V15.08C21.9058 15.18 22.5758 15.39 23.1958 15.68V10C23.1958 8.9 22.2958 8 21.1958 8ZM15.1958 10C14.6458 10 14.1958 9.55 14.1958 9C14.1958 8.45 14.6458 8 15.1958 8C15.7458 8 16.1958 8.45 16.1958 9C16.1958 9.55 15.7458 10 15.1958 10ZM20.1958 17C17.4358 17 15.1958 19.24 15.1958 22C15.1958 24.76 17.4358 27 20.1958 27C22.9558 27 25.1958 24.76 25.1958 22C25.1958 19.24 22.9558 17 20.1958 17ZM21.4858 24L19.8358 22.35C19.7458 22.26 19.6858 22.13 19.6858 22V19.51C19.6858 19.23 19.9058 19.01 20.1858 19.01C20.4658 19.01 20.6858 19.23 20.6858 19.51V21.8L22.1858 23.3C22.3858 23.5 22.3858 23.81 22.1858 24.01C21.9958 24.2 21.6858 24.2 21.4858 24Z" fill="#FEE9EA"/>
</svg>
