<svg width="24" height="14" viewBox="0 0 24 14" fill="none" xmlns="http://www.w3.org/2000/svg">
<path d="M17.265 1.00439C16.875 0.614387 16.245 0.614387 15.855 1.00439L10.215 6.64439L11.625 8.05439L17.265 2.40439C17.645 2.02439 17.645 1.38439 17.265 1.00439ZM21.505 0.994387L11.625 10.8744L8.14498 7.40439C7.75498 7.01439 7.12498 7.01439 6.73498 7.40439C6.34498 7.79439 6.34498 8.42439 6.73498 8.81439L10.915 12.9944C11.305 13.3844 11.935 13.3844 12.325 12.9944L22.915 2.41439C23.305 2.02439 23.305 1.39439 22.915 1.00439H22.905C22.525 0.604387 21.895 0.604387 21.505 0.994387ZM1.08498 8.82439L5.26498 13.0044C5.65498 13.3944 6.28498 13.3944 6.67498 13.0044L7.37498 12.3044L2.49498 7.40439C2.10498 7.01439 1.47498 7.01439 1.08498 7.40439C0.69498 7.79439 0.69498 8.43439 1.08498 8.82439Z" fill="#EEF9E8"/>
</svg>
