<svg width="19" height="17" viewBox="0 0 19 17" fill="none" xmlns="http://www.w3.org/2000/svg">
<path d="M12.5 13.001L8.5 17.001H16.5C17.6 17.001 18.5 16.101 18.5 15.001C18.5 13.901 17.6 13.001 16.5 13.001H12.5Z" fill="white"/>
<path d="M9.56 4.19104L0.79 12.961C0.61 13.141 0.5 13.401 0.5 13.661V16.001C0.5 16.551 0.95 17.001 1.5 17.001H3.84C4.11 17.001 4.36 16.891 4.55 16.711L13.32 7.94103L9.56 4.19104Z" fill="white"/>
<path d="M16.21 5.04104C16.6 4.65104 16.6 4.02104 16.21 3.63104L13.87 1.29104C13.48 0.901035 12.85 0.901035 12.46 1.29104L10.63 3.12104L14.38 6.87104L16.21 5.04104Z" fill="white"/>
</svg>
