<svg width="33" height="33" viewBox="0 0 33 33" fill="none" xmlns="http://www.w3.org/2000/svg">
<circle cx="16.1958" cy="16.5" r="15" stroke="#FEF9E8" stroke-width="2"/>
<path d="M12.1958 23.5C13.2958 23.5 14.1958 22.6 14.1958 21.5V11.5C14.1958 10.4 13.2958 9.5 12.1958 9.5C11.0958 9.5 10.1958 10.4 10.1958 11.5V21.5C10.1958 22.6 11.0958 23.5 12.1958 23.5ZM18.1958 11.5V21.5C18.1958 22.6 19.0958 23.5 20.1958 23.5C21.2958 23.5 22.1958 22.6 22.1958 21.5V11.5C22.1958 10.4 21.2958 9.5 20.1958 9.5C19.0958 9.5 18.1958 10.4 18.1958 11.5Z" fill="#FEF9E8"/>
</svg>
