<svg width="44" height="56" viewBox="0 0 44 56" fill="none" xmlns="http://www.w3.org/2000/svg">
<path d="M30.985 0H1.963C1.155 0 0.5 0.655 0.5 1.926V55C0.5 55.345 1.155 56 1.963 56H42.037C42.845 56 43.5 55.345 43.5 55V12.978C43.5 12.282 43.407 12.058 43.243 11.893L31.607 0.257C31.442 0.093 31.218 0 30.985 0Z" fill="#E9E9E0"/>
<path d="M31.5 0.150879V11.9999H43.349L31.5 0.150879Z" fill="#D9D7CA"/>
<path d="M13.514 33.3242C13.166 33.3242 12.832 33.2112 12.547 32.9982C11.506 32.2172 11.366 31.3482 11.432 30.7562C11.614 29.1282 13.627 27.4242 17.417 25.6882C18.921 22.3922 20.352 18.3312 21.205 14.9382C20.207 12.7662 19.237 9.9482 19.944 8.2952C20.192 7.7162 20.501 7.2722 21.078 7.0802C21.306 7.0042 21.882 6.9082 22.094 6.9082C22.598 6.9082 23.041 7.5572 23.355 7.9572C23.65 8.3332 24.319 9.1302 22.982 14.7592C24.33 17.5432 26.24 20.3792 28.07 22.3212C29.381 22.0842 30.509 21.9632 31.428 21.9632C32.994 21.9632 33.943 22.3282 34.33 23.0802C34.65 23.7022 34.519 24.4292 33.94 25.2402C33.383 26.0192 32.615 26.4312 31.72 26.4312C30.504 26.4312 29.088 25.6632 27.509 24.1462C24.672 24.7392 21.359 25.7972 18.681 26.9682C17.845 28.7422 17.044 30.1712 16.298 31.2192C15.273 32.6542 14.389 33.3242 13.514 33.3242ZM16.176 28.1982C14.039 29.3992 13.168 30.3862 13.105 30.9422C13.095 31.0342 13.068 31.2762 13.536 31.6342C13.685 31.5872 14.555 31.1902 16.176 28.1982ZM29.813 23.7562C30.628 24.3832 30.827 24.7002 31.36 24.7002C31.594 24.7002 32.261 24.6902 32.57 24.2592C32.719 24.0502 32.777 23.9162 32.8 23.8442C32.677 23.7792 32.514 23.6472 31.625 23.6472C31.12 23.6482 30.485 23.6702 29.813 23.7562ZM22.343 17.1742C21.628 19.6482 20.684 22.3192 19.669 24.7382C21.759 23.9272 24.031 23.2192 26.165 22.7182C24.815 21.1502 23.466 19.1922 22.343 17.1742ZM21.736 8.7122C21.638 8.7452 20.406 10.4692 21.832 11.9282C22.781 9.8132 21.779 8.6982 21.736 8.7122Z" fill="#CC4B4C"/>
<path d="M42.037 56H1.963C1.155 56 0.5 55.345 0.5 54.537V39H43.5V54.537C43.5 55.345 42.845 56 42.037 56Z" fill="#CC4B4C"/>
<path d="M11.385 52.9998H9.74402V42.9238H12.642C13.07 42.9238 13.494 42.9918 13.913 43.1288C14.332 43.2658 14.708 43.4708 15.041 43.7438C15.374 44.0168 15.643 44.3478 15.848 44.7348C16.053 45.1218 16.156 45.5568 16.156 46.0408C16.156 46.5518 16.069 47.0138 15.896 47.4288C15.723 47.8438 15.481 48.1928 15.171 48.4748C14.861 48.7568 14.487 48.9758 14.05 49.1308C13.613 49.2858 13.129 49.3628 12.601 49.3628H11.384V52.9998H11.385ZM11.385 44.1678V48.1598H12.889C13.089 48.1598 13.287 48.1258 13.484 48.0568C13.68 47.9888 13.86 47.8768 14.024 47.7218C14.188 47.5668 14.32 47.3508 14.42 47.0728C14.52 46.7948 14.57 46.4508 14.57 46.0408C14.57 45.8768 14.547 45.6868 14.502 45.4738C14.456 45.2598 14.363 45.0548 14.222 44.8588C14.08 44.6628 13.882 44.4988 13.627 44.3668C13.372 44.2348 13.034 44.1688 12.615 44.1688H11.385V44.1678Z" fill="white"/>
<path d="M26.219 47.6818C26.219 48.5108 26.13 49.2198 25.952 49.8078C25.774 50.3958 25.549 50.8878 25.275 51.2848C25.001 51.6818 24.694 51.9938 24.352 52.2218C24.01 52.4498 23.68 52.6198 23.361 52.7348C23.042 52.8488 22.75 52.9218 22.486 52.9538C22.222 52.9838 22.026 52.9998 21.898 52.9998H18.084V42.9238H21.119C21.967 42.9238 22.712 43.0588 23.354 43.3268C23.996 43.5948 24.53 43.9538 24.954 44.3998C25.378 44.8458 25.694 45.3548 25.904 45.9238C26.114 46.4938 26.219 47.0798 26.219 47.6818ZM21.352 51.7968C22.464 51.7968 23.266 51.4418 23.758 50.7308C24.25 50.0198 24.496 48.9898 24.496 47.6408C24.496 47.2218 24.446 46.8068 24.346 46.3968C24.245 45.9868 24.052 45.6158 23.765 45.2828C23.478 44.9498 23.088 44.6808 22.596 44.4758C22.104 44.2708 21.466 44.1678 20.682 44.1678H19.725V51.7968H21.352Z" fill="white"/>
<path d="M30.266 44.1678V47.3398H34.477V48.4608H30.266V52.9998H28.598V42.9238H34.9V44.1678H30.266Z" fill="white"/>
</svg>
