<svg width="12" height="14" viewBox="0 0 12 14" fill="none" xmlns="http://www.w3.org/2000/svg">
<path fill-rule="evenodd" clip-rule="evenodd" d="M0.986636 5.94016C1.16636 5.6835 1.49734 5.60599 1.79825 5.71089C2.62564 6.00538 3.57708 5.72752 4.10477 4.9739L6.01669 2.2434L5.47059 1.86101C5.17023 1.6507 5.09656 1.23288 5.30687 0.932526C5.51718 0.63217 5.935 0.558498 6.23536 0.768809L11.6964 4.59265C11.9967 4.80296 12.0704 5.22078 11.8601 5.52114C11.6498 5.82149 11.232 5.89517 10.9316 5.68486L10.3855 5.30247L8.47358 8.03298C7.94589 8.7866 8.0102 9.77569 8.56991 10.4525C8.77141 10.6993 8.81178 11.0369 8.63206 11.2935L8.58235 11.3645C8.37204 11.6649 7.95422 11.7386 7.65386 11.5283L4.93428 9.62398L2.24666 13.439C2.03635 13.7394 1.61853 13.8131 1.31818 13.6028C1.01782 13.3924 0.944149 12.9746 1.15446 12.6743L3.84207 8.85921L1.10064 6.93964C0.800287 6.72933 0.726615 6.31151 0.936926 6.01116L0.986636 5.94016Z" fill="#DF1F29"/>
</svg>
