<svg width="33" height="33" viewBox="0 0 33 33" fill="none" xmlns="http://www.w3.org/2000/svg">
<circle cx="16.1958" cy="16.5" r="15" stroke="#ECF3FE" stroke-width="2"/>
<path d="M10.6111 13.4187C10.1511 12.9587 9.36111 13.0387 9.05111 13.6087C8.77111 14.1187 8.55111 14.6387 8.38111 15.1887C8.19111 15.8187 8.69111 16.4387 9.34111 16.4387H9.35111C9.78111 16.4387 10.1711 16.1587 10.2911 15.7387C10.4111 15.3387 10.5711 14.9487 10.7711 14.5687C10.9911 14.1987 10.9211 13.7287 10.6111 13.4187ZM9.36111 18.4387H9.34111C8.69111 18.4387 8.19111 19.0587 8.38111 19.6887C8.54111 20.2287 8.76111 20.7587 9.04111 21.2687C9.35111 21.8387 10.1511 21.9287 10.6111 21.4687C10.9111 21.1587 10.9911 20.6987 10.7811 20.3187C10.5811 19.9487 10.4211 19.5587 10.3011 19.1587C10.1811 18.7187 9.79111 18.4387 9.36111 18.4387ZM12.2111 24.4587C12.7211 24.7387 13.2511 24.9587 13.8011 25.1187C14.4211 25.2987 15.0411 24.7987 15.0411 24.1587V24.1287C15.0411 23.6987 14.7611 23.3087 14.3411 23.1887C13.9411 23.0687 13.5611 22.9087 13.1911 22.7087C12.8111 22.4987 12.3311 22.5687 12.0311 22.8787L12.0011 22.9087C11.5511 23.3587 11.6411 24.1487 12.2111 24.4587ZM17.0511 9.50874V8.84874C17.0511 7.95874 15.9711 7.50874 15.3411 8.13874L13.2211 10.2687C12.8211 10.6687 12.8211 11.3087 13.2211 11.6987L15.3511 13.7787C15.9811 14.3987 17.0511 13.9487 17.0511 13.0587V11.5287C19.8911 12.0087 22.0511 14.4687 22.0511 17.4387C22.0511 20.1687 20.2311 22.4587 17.7311 23.1887C17.3211 23.3087 17.0511 23.6987 17.0511 24.1287V24.1487C17.0511 24.7987 17.6611 25.2887 18.2811 25.1087C21.6211 24.1487 24.0511 21.0787 24.0511 17.4387C24.0511 13.3587 21.0011 9.99874 17.0511 9.50874Z" fill="#ECF3FE"/>
</svg>
