<svg width="33" height="33" viewBox="0 0 33 33" fill="none" xmlns="http://www.w3.org/2000/svg">
<path d="M4.5 6.95182C4.5 5.47916 5.694 4.28516 7.16667 4.28516H25.8333C27.306 4.28516 28.5 5.47916 28.5 6.95182V25.6185C28.5 27.0912 27.306 28.2852 25.8333 28.2852H7.16667C5.694 28.2852 4.5 27.0912 4.5 25.6185V6.95182Z" fill="#03A9F4"/>
<path d="M13.8439 13.0679H12.5093V16.0239H13.8246C14.1893 16.0239 14.4713 15.9045 14.6713 15.6659C14.8713 15.4272 14.9706 15.0799 14.9706 14.6239C14.9706 14.1505 14.8686 13.7745 14.6646 13.4945C14.4606 13.2145 14.1866 13.0725 13.8439 13.0679Z" fill="#272729"/>
<path d="M6.5 6.28516V26.2852H26.5V6.28516H6.5ZM16.0767 16.8112C15.526 17.3498 14.762 17.6185 13.7853 17.6185H12.5093V20.9518H10.5953V11.4725H13.8247C14.762 11.4725 15.51 11.7638 16.0673 12.3452C16.6247 12.9265 16.904 13.6818 16.904 14.6105C16.904 15.5392 16.628 16.2725 16.0767 16.8112ZM22.288 20.5092C21.8153 20.8912 21.194 21.0818 20.426 21.0818C19.9093 21.0818 19.4533 20.9812 19.0587 20.7792C18.664 20.5772 18.354 20.2958 18.1307 19.9358C17.9073 19.5758 17.7953 19.1872 17.7953 18.7705H19.5467C19.556 19.0912 19.63 19.3325 19.7713 19.4932C19.9127 19.6538 20.1433 19.7338 20.4647 19.7338C20.9593 19.7338 21.2067 19.5105 21.2067 19.0632C21.2067 18.9072 21.132 18.7625 20.982 18.6305C20.832 18.4985 20.5 18.3198 19.9833 18.0938C19.224 17.7858 18.702 17.4672 18.4173 17.1365C18.1327 16.8058 17.9907 16.3965 17.9907 15.9058C17.9907 15.2892 18.2133 14.7805 18.658 14.3792C19.1027 13.9778 19.6927 13.7772 20.4253 13.7772C21.1973 13.7772 21.816 13.9772 22.2807 14.3758C22.7453 14.7745 22.9773 15.3112 22.9773 15.9838H21.1347C21.1347 15.4112 20.8967 15.1245 20.4187 15.1245C20.2233 15.1245 20.0633 15.1852 19.9367 15.3065C19.81 15.4278 19.748 15.5978 19.748 15.8145C19.748 15.9705 19.8173 16.1085 19.9567 16.2278C20.096 16.3472 20.4227 16.5178 20.94 16.7392C21.6913 17.0172 22.2213 17.3265 22.532 17.6672C22.8427 18.0078 22.9973 18.4498 22.9973 18.9918C22.9973 19.6218 22.7607 20.1272 22.288 20.5092Z" fill="#272729"/>
</svg>
