<svg width="28" height="28" viewBox="0 0 28 28" fill="none" xmlns="http://www.w3.org/2000/svg">
<path d="M12.6665 22.0472H15.3332V19.3805H12.6665V22.0472ZM13.9998 0.713867C6.63984 0.713867 0.666504 6.6872 0.666504 14.0472C0.666504 21.4072 6.63984 27.3805 13.9998 27.3805C21.3598 27.3805 27.3332 21.4072 27.3332 14.0472C27.3332 6.6872 21.3598 0.713867 13.9998 0.713867ZM13.9998 24.7139C8.11984 24.7139 3.33317 19.9272 3.33317 14.0472C3.33317 8.1672 8.11984 3.38053 13.9998 3.38053C19.8798 3.38053 24.6665 8.1672 24.6665 14.0472C24.6665 19.9272 19.8798 24.7139 13.9998 24.7139ZM13.9998 6.0472C11.0532 6.0472 8.6665 8.43387 8.6665 11.3805H11.3332C11.3332 9.91387 12.5332 8.71387 13.9998 8.71387C15.4665 8.71387 16.6665 9.91387 16.6665 11.3805C16.6665 14.0472 12.6665 13.7139 12.6665 18.0472H15.3332C15.3332 15.0472 19.3332 14.7139 19.3332 11.3805C19.3332 8.43387 16.9465 6.0472 13.9998 6.0472Z" fill="#939396"/>
</svg>
