<svg width="24" height="24" viewBox="0 0 24 24" fill="none" xmlns="http://www.w3.org/2000/svg">
<path d="M17.3023 15.3423H16.2489L15.8756 14.9823C17.4756 13.1156 18.3023 10.569 17.8489 7.86231C17.2223 4.15564 14.1289 1.19564 10.3956 0.742305C4.7556 0.0489722 0.00893307 4.79564 0.702266 10.4356C1.1556 14.169 4.1156 17.2623 7.82227 17.889C10.5289 18.3423 13.0756 17.5156 14.9423 15.9156L15.3023 16.289V17.3423L20.9689 23.009C21.5156 23.5556 22.4089 23.5556 22.9556 23.009C23.5023 22.4623 23.5023 21.569 22.9556 21.0223L17.3023 15.3423ZM9.30227 15.3423C5.98227 15.3423 3.30227 12.6623 3.30227 9.34231C3.30227 6.02231 5.98227 3.34231 9.30227 3.34231C12.6223 3.34231 15.3023 6.02231 15.3023 9.34231C15.3023 12.6623 12.6223 15.3423 9.30227 15.3423Z" fill="#939396"/>
</svg>
