<?xml version="1.0" encoding="UTF-8"?>
<svg width="32px" height="16px" viewBox="0 0 32 16" version="1.1" xmlns="http://www.w3.org/2000/svg" xmlns:xlink="http://www.w3.org/1999/xlink">
    <title>team</title>
    <g id="Page-1" stroke="none" stroke-width="1" fill="none" fill-rule="evenodd">
        <g id="team" fill="#939396" fill-rule="nonzero">
            <path d="M5.33333,9.333335 C6.8,9.333335 8,8.133335 8,6.666665 C8,5.200005 6.8,4.000005 5.33333,4.000005 C3.86667,4.000005 2.66667,5.200005 2.66667,6.666665 C2.66667,8.133335 3.86667,9.333335 5.33333,9.333335 Z M6.84,10.800025 C6.34667,10.720025 5.85333,10.666625 5.33333,10.666625 C4.01333,10.666625 2.76,10.946625 1.62667,11.440025 C0.64,11.866625 0,12.826625 0,13.906625 L0,16.000025 L6,16.000025 L6,13.853325 C6,12.746625 6.30667,11.706625 6.84,10.800025 Z M26.6667,9.333335 C28.1333,9.333335 29.3333,8.133335 29.3333,6.666665 C29.3333,5.200005 28.1333,4.000005 26.6667,4.000005 C25.2,4.000005 24,5.200005 24,6.666665 C24,8.133335 25.2,9.333335 26.6667,9.333335 Z M32,13.906625 C32,12.826625 31.36,11.866625 30.3733,11.440025 C29.24,10.946625 27.9867,10.666625 26.6667,10.666625 C26.1467,10.666625 25.6533,10.720025 25.16,10.800025 C25.6933,11.706625 26,12.746625 26,13.853325 L26,16.000025 L32,16.000025 L32,13.906625 Z M21.6533,10.200025 C20.0933,9.506665 18.1733,9.000005 16,9.000005 C13.8267,9.000005 11.9067,9.519995 10.3467,10.200025 C8.90667,10.840025 8,12.280025 8,13.853325 L8,16.000025 L24,16.000025 L24,13.853325 C24,12.280025 23.0933,10.840025 21.6533,10.200025 Z M10.76,13.333325 C10.88,13.026625 10.9333,12.813325 11.9733,12.413325 C13.2667,11.906625 14.6267,11.666625 16,11.666625 C17.3733,11.666625 18.7333,11.906625 20.0267,12.413325 C21.0533,12.813325 21.1067,13.026625 21.24,13.333325 L10.76,13.333325 Z M16,2.666665 C16.7333,2.666665 17.3333,3.266665 17.3333,4.000005 C17.3333,4.733335 16.7333,5.333335 16,5.333335 C15.2667,5.333335 14.6667,4.733335 14.6667,4.000005 C14.6667,3.266665 15.2667,2.666665 16,2.666665 Z M16,0 C13.7867,0 12,1.786665 12,4 C12,6.213335 13.7867,8 16,8 C18.2133,8 20,6.213335 20,4 C20,1.786665 18.2133,0 16,0 Z" id="Shape"></path>
        </g>
    </g>
</svg>