<svg width="32" height="32" viewBox="0 0 32 32" fill="none" xmlns="http://www.w3.org/2000/svg">
<path d="M14.6645 11.6644V16.5711C14.6645 17.0377 14.9179 17.4777 15.3179 17.7177L19.4779 20.1844C19.9579 20.4644 20.5712 20.3044 20.8512 19.8377C21.1312 19.3577 20.9846 18.7444 20.5045 18.4644L16.6779 16.1844V11.6511C16.6646 11.1177 16.2112 10.6644 15.6645 10.6644C15.1179 10.6644 14.6645 11.1177 14.6645 11.6644ZM27.9979 12.6644V5.61105C27.9979 5.01105 27.2779 4.71772 26.8645 5.14439L24.4912 7.51772C22.0779 5.10439 18.6379 3.71772 14.8779 4.05105C9.29122 4.55772 4.69122 9.05105 4.07788 14.6377C3.27788 21.8644 8.91788 27.9977 15.9979 27.9977C22.1179 27.9977 27.1712 23.4111 27.9046 17.4911C27.9979 16.6911 27.3712 15.9977 26.5712 15.9977C25.9046 15.9977 25.3446 16.4911 25.2646 17.1444C24.6912 21.7977 20.6779 25.3977 15.8645 25.3311C10.9179 25.2644 6.74455 21.0911 6.66455 16.1311C6.58455 10.9311 10.8112 6.66439 15.9979 6.66439C18.5712 6.66439 20.9046 7.71772 22.5979 9.39772L19.8112 12.1844C19.3845 12.6111 19.6779 13.3311 20.2779 13.3311H27.3312C27.7045 13.3311 27.9979 13.0377 27.9979 12.6644Z" fill="#5E5E62"/>
</svg>
