<svg width="44" height="56" viewBox="0 0 44 56" fill="none" xmlns="http://www.w3.org/2000/svg">
<path d="M30.985 0H1.963C1.155 0 0.5 0.655 0.5 1.926V55C0.5 55.345 1.155 56 1.963 56H42.037C42.845 56 43.5 55.345 43.5 55V12.978C43.5 12.282 43.407 12.058 43.243 11.893L31.607 0.257C31.442 0.093 31.218 0 30.985 0Z" fill="#E9E9E0"/>
<path d="M31.5 0.150879V11.9999H43.349L31.5 0.150879Z" fill="#D9D7CA"/>
<path d="M42.037 56H1.963C1.155 56 0.5 55.345 0.5 54.537V39H43.5V54.537C43.5 55.345 42.845 56 42.037 56Z" fill="#69B36C"/>
<path d="M14.379 48.1049L16.936 52.9999H15.036L13.436 49.1989H13.299L11.576 52.9999H9.67596L12.233 48.1049L9.51196 42.9229H11.385L13.162 47.0249H13.299L15.227 42.9229H17.1L14.379 48.1049Z" fill="white"/>
<path d="M21.037 42.9238V51.7558H25.672V52.9998H19.369V42.9238H21.037Z" fill="white"/>
<path d="M33.041 50.2378C33.041 50.6018 32.966 50.9558 32.815 51.2978C32.664 51.6398 32.453 51.9398 32.18 52.1998C31.907 52.4598 31.569 52.6668 31.168 52.8218C30.767 52.9768 30.311 53.0538 29.801 53.0538C29.582 53.0538 29.357 53.0418 29.124 53.0198C28.891 52.9978 28.657 52.9578 28.42 52.9038C28.183 52.8488 27.957 52.7738 27.743 52.6778C27.529 52.5818 27.344 52.4658 27.189 52.3288L27.476 51.1528C27.603 51.2258 27.765 51.2968 27.961 51.3648C28.157 51.4328 28.359 51.4968 28.569 51.5558C28.778 51.6158 28.988 51.6628 29.198 51.6998C29.407 51.7358 29.603 51.7548 29.786 51.7548C30.342 51.7548 30.768 51.6248 31.064 51.3648C31.36 51.1048 31.508 50.7198 31.508 50.2098C31.508 49.8998 31.403 49.6358 31.194 49.4168C30.984 49.1978 30.722 48.9998 30.408 48.8218C30.094 48.6438 29.754 48.4668 29.389 48.2888C29.024 48.1108 28.682 47.9008 28.364 47.6598C28.045 47.4188 27.781 47.1338 27.571 46.8058C27.361 46.4778 27.257 46.0678 27.257 45.5758C27.257 45.1298 27.339 44.7328 27.503 44.3868C27.667 44.0408 27.888 43.7458 28.166 43.5048C28.444 43.2638 28.768 43.0788 29.137 42.9508C29.506 42.8228 29.896 42.7598 30.306 42.7598C30.725 42.7598 31.149 42.7988 31.577 42.8758C32.005 42.9528 32.351 43.0788 32.616 43.2518C32.561 43.3698 32.497 43.4998 32.425 43.6418C32.352 43.7838 32.283 43.9148 32.22 44.0378C32.156 44.1608 32.101 44.2638 32.056 44.3458C32.01 44.4278 31.983 44.4738 31.974 44.4828C31.919 44.4558 31.858 44.4198 31.789 44.3738C31.72 44.3278 31.622 44.2828 31.495 44.2368C31.367 44.1908 31.199 44.1598 30.989 44.1408C30.779 44.1218 30.51 44.1268 30.182 44.1548C29.999 44.1738 29.827 44.2248 29.662 44.3118C29.497 44.3988 29.352 44.5048 29.224 44.6328C29.096 44.7608 28.996 44.9038 28.923 45.0638C28.85 45.2228 28.814 45.3768 28.814 45.5218C28.814 45.8858 28.918 46.1798 29.128 46.4038C29.337 46.6278 29.597 46.8228 29.907 46.9918C30.217 47.1608 30.554 47.3248 30.919 47.4838C31.283 47.6428 31.623 47.8378 31.938 48.0648C32.253 48.2918 32.514 48.5778 32.724 48.9188C32.936 49.2608 33.041 49.6998 33.041 50.2378Z" fill="white"/>
<path d="M17.5 16V12H5.5V16V18V20V22V24V26V28V30V34H15.5H17.5H38.5V30V28V26V24V22V20V16H17.5ZM7.5 14H15.5V16H7.5V14ZM7.5 18H15.5V20H7.5V18ZM7.5 22H15.5V24H7.5V22ZM7.5 26H15.5V28H7.5V26ZM15.5 32H7.5V30H15.5V32ZM36.5 32H17.5V30H36.5V32ZM36.5 28H17.5V26H36.5V28ZM36.5 24H17.5V22H36.5V24ZM17.5 20V18H36.5V20H17.5Z" fill="#C8BDB8"/>
</svg>
